<svg width="744" height="955" viewBox="0 0 744 955" fill="none" xmlns="http://www.w3.org/2000/svg">
<path d="M0 905C0 932.614 22.3858 955 50 955H694C721.614 955 744 932.614 744 905V50C744 22.3857 721.614 0 694 0H50C22.3858 0 0 22.3857 0 50V905Z" fill="#7B48A7" fill-opacity="0.37"/>
<path d="M81.3289 848.299C81.3289 875.914 103.715 898.299 131.329 898.299H626.76C654.374 898.299 676.76 875.914 676.76 848.299V105.123C676.76 77.5084 654.374 55.1226 626.76 55.1226H131.329C103.715 55.1226 81.3289 77.5083 81.3289 105.123V848.299Z" fill="#EDB9EA" fill-opacity="0.54"/>
<path d="M474.634 364.926H621.806C621.806 364.926 625.943 365.573 625.943 359.783C625.943 359.783 626.72 355.117 622.196 355.117C617.667 355.117 621.289 354.957 621.289 354.957H587.955H483.43H475.928C475.928 354.957 472.178 355.6 472.178 359.621C472.178 359.621 471.272 364.926 474.634 364.926Z" fill="#FBFCFE"/>
<path d="M527.133 361.068C527.967 358.368 528.448 355.447 528.448 352.382C528.448 339.057 519.76 328.256 509.044 328.256C498.328 328.256 489.639 339.057 489.639 352.382C489.639 355.447 490.119 358.368 490.958 361.068H527.133Z" fill="#FBFCFE"/>
<path d="M599.336 357.568C599.994 355.446 600.373 353.15 600.373 350.733C600.373 340.252 593.537 331.751 585.106 331.751C576.676 331.751 569.841 340.252 569.841 350.733C569.841 353.15 570.22 355.446 570.879 357.568H599.336Z" fill="#FBFCFE"/>
<path d="M579.444 359.807C580.907 355.095 581.745 349.989 581.745 344.634C581.745 321.361 566.568 302.493 547.851 302.493C529.133 302.493 513.96 321.361 513.96 344.634C513.96 349.989 514.795 355.095 516.262 359.807H579.444Z" fill="#FBFCFE"/>
<path d="M607.356 354.957C607.356 354.957 601.355 355.196 600 346.87L594.419 358.172L599.853 364.608L606.063 361.39L607.356 354.957Z" fill="#FBFCFE"/>
<path d="M482.753 354.957C482.753 354.957 488.754 355.196 490.112 346.87L495.691 358.172L490.256 364.608L484.045 361.39L482.753 354.957Z" fill="#FBFCFE"/>
<path d="M226.206 393.97H322.062C322.062 393.97 324.757 394.391 324.757 390.619C324.757 390.619 325.262 387.58 322.316 387.58C319.366 387.58 321.725 387.476 321.725 387.476H300.015H231.935H227.049C227.049 387.476 224.607 387.894 224.607 390.514C224.607 390.514 224.015 393.97 226.206 393.97Z" fill="#FBFCFE"/>
<path d="M260.401 391.455C260.944 389.698 261.258 387.795 261.258 385.798C261.258 377.12 255.599 370.084 248.619 370.084C241.639 370.084 235.98 377.12 235.98 385.798C235.98 387.795 236.293 389.698 236.839 391.455H260.401Z" fill="#FBFCFE"/>
<path d="M307.427 389.177C307.857 387.795 308.104 386.3 308.104 384.725C308.104 377.899 303.65 372.362 298.159 372.362C292.668 372.362 288.217 377.899 288.217 384.725C288.217 386.3 288.463 387.795 288.892 389.177H307.427Z" fill="#FBFCFE"/>
<path d="M294.471 390.635C295.424 387.565 295.97 384.24 295.97 380.753C295.97 365.594 286.085 353.306 273.894 353.306C261.703 353.306 251.819 365.594 251.819 380.753C251.819 384.24 252.364 387.565 253.321 390.635H294.471Z" fill="#FBFCFE"/>
<path d="M312.651 387.476C312.651 387.476 308.743 387.632 307.86 382.209L304.225 389.571L307.764 393.762L311.809 391.667L312.651 387.476Z" fill="#FBFCFE"/>
<path d="M231.495 387.476C231.495 387.476 235.403 387.632 236.288 382.209L239.921 389.571L236.382 393.762L232.337 391.667L231.495 387.476Z" fill="#FBFCFE"/>
<path d="M82.3523 734.418H382.803H675.976V258.021H82.3523V734.418Z" fill="#9E7AA6"/>
<path d="M421.944 144.457C410.014 160.849 395.626 169.728 381.909 180.394C336.525 215.683 293.644 281.177 284.762 370.311C279.983 418.281 285.341 469.866 275.086 514.843C251.352 618.932 163.112 621.812 133.873 721.05C124.508 752.836 122.761 790.225 115.879 824.09C112.51 840.669 139.87 888.192 156.787 888.192H652C665.807 888.192 677 876.999 677 863.192V79.9999C677 66.1929 665.807 54.9999 652 54.9999H477.434C466.787 54.9999 457.324 61.7475 453.919 71.8347C444.802 98.8505 435.654 125.62 421.944 144.457Z" fill="#1DAC92" fill-opacity="0.42"/>
<path d="M629.154 409.108C609.665 412.954 589.328 410.068 571.075 400.731C563.443 396.828 555.867 391.745 547.617 391.569C532.202 391.242 519.354 407.967 503.959 408.975C488.572 409.983 475.513 395.294 460.528 390.838C448.678 387.314 436.545 390.376 424.394 393.437C412.681 396.389 400.954 399.34 389.45 396.392C378.698 393.636 368.819 385.826 357.846 385.426C345.64 384.98 333.627 393.752 321.894 396.191C319.115 403.829 317.02 411.87 315.775 420.313C311.957 446.227 316.238 474.093 308.045 498.39C304.395 509.212 298.832 518.003 292.068 525.535C300.296 535.097 309.734 543.165 319.151 550.941C324.411 555.284 329.848 559.658 336.01 561.367C341.785 562.967 347.811 562.111 353.635 560.816C374.445 556.19 394.176 546.121 414.426 538.571C438.833 529.469 464.116 524.003 489.562 522.328C510.673 520.938 531.92 522.134 553.136 523.331C578.615 524.767 604.05 526.205 629.154 523.162V409.108Z" fill="#DAF3F2"/>
<path d="M489.242 306.709H594.027C594.027 306.709 596.973 307.169 596.973 303.047C596.973 303.047 597.525 299.724 594.303 299.724C591.079 299.724 593.657 299.61 593.657 299.61H569.925H495.505H490.164C490.164 299.61 487.494 300.067 487.494 302.931C487.494 302.931 486.849 306.709 489.242 306.709Z" fill="#DAF3F2"/>
<path d="M526.621 303.96C527.215 302.039 527.558 299.959 527.558 297.776C527.558 288.289 521.371 280.598 513.743 280.598C506.113 280.598 499.926 288.289 499.926 297.776C499.926 299.959 500.268 302.039 500.865 303.96H526.621Z" fill="#DAF3F2"/>
<path d="M578.028 301.47C578.497 299.96 578.767 298.324 578.767 296.603C578.767 289.141 573.899 283.088 567.896 283.088C561.895 283.088 557.028 289.141 557.028 296.603C557.028 298.324 557.298 299.96 557.767 301.47H578.028Z" fill="#DAF3F2"/>
<path d="M563.866 303.063C564.908 299.708 565.504 296.072 565.504 292.261C565.504 275.69 554.698 262.256 541.373 262.256C528.045 262.256 517.242 275.69 517.242 292.261C517.242 296.072 517.836 299.708 518.882 303.063H563.866Z" fill="#DAF3F2"/>
<path d="M583.738 299.61C583.738 299.61 579.465 299.781 578.501 293.853L574.526 301.9L578.396 306.482L582.817 304.191L583.738 299.61Z" fill="#DAF3F2"/>
<path d="M495.024 299.61C495.024 299.61 499.296 299.781 500.264 293.854L504.235 301.9L500.365 306.482L495.944 304.191L495.024 299.61Z" fill="#DAF3F2"/>
<path d="M394.022 318.259H450.562C450.562 318.259 452.152 318.507 452.152 316.283C452.152 316.283 452.45 314.49 450.712 314.49C448.972 314.49 450.363 314.429 450.363 314.429H437.558H397.402H394.519C394.519 314.429 393.079 314.676 393.079 316.221C393.079 316.221 392.73 318.259 394.022 318.259Z" fill="#ECF9FB"/>
<path d="M414.191 316.777C414.511 315.739 414.697 314.617 414.697 313.439C414.697 308.321 411.358 304.17 407.242 304.17C403.125 304.17 399.787 308.321 399.787 313.439C399.787 314.617 399.971 315.739 400.294 316.777H414.191Z" fill="#ECF9FB"/>
<path d="M441.931 315.432C442.183 314.617 442.329 313.735 442.329 312.806C442.329 308.78 439.703 305.514 436.463 305.514C433.225 305.514 430.599 308.78 430.599 312.806C430.599 313.735 430.745 314.617 430.998 315.432H441.931Z" fill="#ECF9FB"/>
<path d="M434.288 316.292C434.851 314.482 435.172 312.52 435.172 310.463C435.172 301.522 429.342 294.274 422.151 294.274C414.96 294.274 409.131 301.522 409.131 310.463C409.131 312.52 409.451 314.482 410.016 316.292H434.288Z" fill="#ECF9FB"/>
<path d="M445.01 314.429C445.01 314.429 442.705 314.521 442.185 311.322L440.04 315.664L442.127 318.137L444.514 316.9L445.01 314.429Z" fill="#ECF9FB"/>
<path d="M397.141 314.429C397.141 314.429 399.446 314.521 399.968 311.322L402.111 315.664L400.023 318.137L397.637 316.9L397.141 314.429Z" fill="#ECF9FB"/>
<path d="M515.412 348.924C515.412 355.084 511.396 360.078 506.441 360.078C501.487 360.078 497.471 355.084 497.471 348.924C497.471 342.763 501.487 337.769 506.441 337.769C511.396 337.769 515.412 342.763 515.412 348.924Z" fill="#D7F1F2"/>
<path d="M519.702 366.868C519.702 375.975 513.765 383.357 506.441 383.357C499.118 383.357 493.181 375.975 493.181 366.868C493.181 357.761 499.118 350.378 506.441 350.378C513.765 350.378 519.702 357.761 519.702 366.868Z" fill="#D7F1F2"/>
<path d="M523.213 382.388C523.213 393.906 515.704 403.242 506.441 403.242C497.179 403.242 489.67 393.906 489.67 382.388C489.67 370.87 497.179 361.534 506.441 361.534C515.704 361.534 523.213 370.87 523.213 382.388Z" fill="#D7F1F2"/>
<path d="M507.423 440.585H505.46V350.379H507.423V440.585Z" fill="#779B97"/>
<path d="M506.365 393.878C497.179 393.878 495.024 381.606 495.003 381.481L496.925 380.986L495.964 381.234L496.925 380.984C496.998 381.411 498.788 391.438 506.365 391.438V393.878Z" fill="#779B97"/>
<path d="M506.712 382.023V379.582C513.399 379.582 514.203 372.54 514.233 372.241L516.181 372.551C516.171 372.645 515.107 382.023 506.712 382.023Z" fill="#779B97"/>
<path d="M506.539 370.167C504.218 370.167 502.428 369.314 501.221 367.63C499.349 365.021 499.656 361.416 499.67 361.264L501.62 361.537C501.618 361.563 501.407 364.237 502.695 366.018C503.515 367.151 504.808 367.727 506.539 367.727V370.167Z" fill="#779B97"/>
<path d="M490.695 362.959C490.695 367.147 487.965 370.542 484.597 370.542C481.229 370.542 478.499 367.147 478.499 362.959C478.499 358.771 481.229 355.376 484.597 355.376C487.965 355.376 490.695 358.771 490.695 362.959Z" fill="#D7F1F2"/>
<path d="M493.612 375.158C493.612 381.349 489.576 386.368 484.597 386.368C479.619 386.368 475.582 381.349 475.582 375.158C475.582 368.967 479.619 363.948 484.597 363.948C489.576 363.948 493.612 368.967 493.612 375.158Z" fill="#D7F1F2"/>
<path d="M495.999 385.709C495.999 393.538 490.895 399.885 484.598 399.885C478.301 399.885 473.197 393.538 473.197 385.709C473.197 377.878 478.301 371.531 484.598 371.531C490.895 371.531 495.999 377.878 495.999 385.709Z" fill="#D7F1F2"/>
<path d="M485.265 425.273H483.93V363.948H485.265V425.273Z" fill="#779B97"/>
<path d="M484.546 393.521C478.301 393.521 476.836 385.177 476.822 385.092L478.129 384.756L477.475 384.924L478.128 384.754C478.178 385.044 479.394 391.861 484.546 391.861V393.521Z" fill="#779B97"/>
<path d="M484.782 385.46V383.801C489.328 383.801 489.874 379.014 489.894 378.811L491.218 379.021C491.211 379.086 490.488 385.46 484.782 385.46Z" fill="#779B97"/>
<path d="M484.664 377.4C483.087 377.4 481.87 376.82 481.048 375.676C479.776 373.902 479.985 371.451 479.995 371.348L481.32 371.533C481.319 371.551 481.176 373.37 482.051 374.58C482.609 375.351 483.488 375.742 484.664 375.742V377.4Z" fill="#779B97"/>
<path d="M408.94 363.449C408.94 366.76 406.781 369.443 404.12 369.443C401.458 369.443 399.3 366.76 399.3 363.449C399.3 360.139 401.458 357.456 404.12 357.456C406.781 357.456 408.94 360.139 408.94 363.449Z" fill="#D7F1F2"/>
<path d="M411.246 373.091C411.246 377.984 408.055 381.951 404.12 381.951C400.185 381.951 396.995 377.984 396.995 373.091C396.995 368.198 400.185 364.231 404.12 364.231C408.055 364.231 411.246 368.198 411.246 373.091Z" fill="#D7F1F2"/>
<path d="M413.131 381.431C413.131 387.619 409.096 392.635 404.119 392.635C399.142 392.635 395.108 387.619 395.108 381.431C395.108 375.242 399.142 370.225 404.119 370.225C409.096 370.225 413.131 375.242 413.131 381.431Z" fill="#D7F1F2"/>
<path d="M404.647 412.701H403.592V364.231H404.647V412.701Z" fill="#779B97"/>
<path d="M404.08 387.605C399.143 387.605 397.986 381.01 397.974 380.944L399.007 380.677L398.491 380.81L399.007 380.676C399.046 380.905 400.008 386.293 404.08 386.293V387.605Z" fill="#779B97"/>
<path d="M404.266 381.234V379.923C407.859 379.923 408.291 376.139 408.307 375.978L409.353 376.145C409.348 376.196 408.776 381.234 404.266 381.234Z" fill="#779B97"/>
<path d="M404.172 374.865C402.926 374.865 401.964 374.406 401.314 373.5C400.309 372.099 400.473 370.162 400.481 370.08L401.53 370.227C401.528 370.241 401.415 371.678 402.107 372.635C402.548 373.243 403.243 373.553 404.172 373.553V374.865Z" fill="#779B97"/>
<path d="M675.977 433.732C661.496 435.922 647.3 444.762 632.808 449.144C596.949 459.985 561.609 443.327 526.041 426.669C493.67 411.509 461.11 396.348 427.801 401.918C411.709 404.609 396.453 412.083 381.387 419.494C354.806 432.57 328.225 445.646 301.644 458.722C301.181 477.861 300.819 496.929 294.815 514.41C272.307 579.951 188.623 581.765 160.894 644.251C152.013 664.266 150.355 687.808 143.829 709.132C138.272 727.288 126.812 745.184 112.034 749.494H675.977V433.732Z" fill="#646679"/>
<path d="M650.977 897.238C664.784 897.238 675.977 886.045 675.977 872.238V506.537C675.977 499.904 673.454 493.293 667.683 490.023C666.486 489.346 665.28 488.72 664.077 488.121C629.925 471.104 593.126 470.776 558.876 487.184C505.166 512.914 457.058 578.76 401.382 579.086C368.714 579.278 337.609 556.527 305.656 544.597C297.115 541.409 288.204 539.177 279.283 538.376C269.285 537.479 261.189 545.031 257.573 554.395C226.399 635.124 147.381 644.474 119.762 733.916C110.172 764.976 108.382 801.511 101.335 834.601C97.9687 850.405 124.427 897.238 140.585 897.238H650.977Z" fill="#646F79"/>
<path d="M604.855 404.654H612.311L598.278 376.769L601.36 376.765L589.932 354.115L597.297 354.105L588.338 336.347L592.797 336.339L584.397 319.69L589.422 319.683L583.448 307.842L587.173 307.837L573.173 257.909L559.064 307.651L562.821 307.741L556.817 319.465L561.89 319.589L553.449 336.079L557.966 336.187L548.957 353.782L554.613 353.92L543.115 376.377L548.914 376.516L534.793 404.03L541.197 404.195L526.764 432.24L555.949 432.981H619.149L604.855 404.654Z" fill="#D7F1F2"/>
<path d="M573.134 258.05L559.064 307.65L562.821 307.741L556.817 319.465L561.89 319.588L553.449 336.078L557.966 336.187L548.957 353.782L554.613 353.919L543.115 376.376L548.914 376.516L534.793 404.03L541.197 404.194L526.764 432.24L549.396 403.354L573.134 258.05Z" fill="#EEF9FB"/>
<path d="M571.06 432.981H555.949L526.764 432.24L571.06 418.468V432.981ZM574.633 428.037V419.695L578.87 419.804L574.633 428.037ZM580.869 402.334L573.134 258.05L573.173 257.909L587.173 307.837L583.448 307.842L589.422 319.683L584.397 319.69L592.797 336.339L588.338 336.347L592.789 345.17L592.028 346.656L593.557 346.693L595.226 350L593.121 354.11L589.932 354.115L591.514 357.25L587.204 365.667L593.278 365.815L580.931 389.931L587.157 390.081L580.869 402.334Z" fill="#B4CDC2"/>
<path d="M574.633 483.605C574.633 484.831 573.833 485.826 572.846 485.826C571.859 485.826 571.06 484.831 571.06 483.605V348.076C571.06 346.849 571.859 345.854 572.846 345.854C573.833 345.854 574.633 346.849 574.633 348.076V483.605Z" fill="#779B97"/>
<path d="M575.416 410.231C574.719 411.098 573.587 411.098 572.889 410.23C572.192 409.362 572.192 407.956 572.889 407.089L587.247 389.234C587.946 388.367 589.077 388.367 589.775 389.234C590.472 390.102 590.472 391.508 589.775 392.376L575.416 410.231Z" fill="#779B97"/>
<path d="M572.502 381.907C573.2 382.775 573.2 384.182 572.502 385.05C571.804 385.918 570.674 385.918 569.975 385.05L555.617 367.196C554.919 366.328 554.919 364.921 555.617 364.053C556.314 363.185 557.446 363.185 558.143 364.053L572.502 381.907Z" fill="#779B97"/>
<path d="M569.051 331.327C567.818 331.327 566.817 330.084 566.817 328.551C566.817 327.018 567.818 325.773 569.051 325.773C570.284 325.773 571.284 327.018 571.284 328.551C571.284 330.084 570.284 331.327 569.051 331.327Z" fill="#B4CDC2"/>
<path d="M556.711 384.307C555.63 384.307 554.756 383.217 554.756 381.875C554.756 380.533 555.63 379.446 556.711 379.446C557.789 379.446 558.664 380.533 558.664 381.875C558.664 383.217 557.789 384.307 556.711 384.307Z" fill="#B4CDC2"/>
<path d="M562.499 359.912C560.495 359.912 558.87 357.89 558.87 355.398C558.87 352.906 560.495 350.886 562.499 350.886C564.503 350.886 566.129 352.906 566.129 355.398C566.129 357.89 564.503 359.912 562.499 359.912Z" fill="#B4CDC2"/>
<path d="M647.23 420.298H655.238L640.168 390.353L643.477 390.349L631.205 366.026L639.113 366.014L629.493 346.945L634.282 346.936L625.262 329.057L630.658 329.05L624.243 316.334L628.241 316.329L613.209 262.712L598.057 316.128L602.091 316.226L595.644 328.816L601.092 328.949L592.027 346.656L596.878 346.772L587.203 365.667L593.277 365.816L580.93 389.932L587.157 390.081L571.993 419.628L578.869 419.804L563.371 449.922L594.711 450.717H662.581L647.23 420.298Z" fill="#D7F1F2"/>
<path d="M613.166 262.864L598.057 316.128L602.091 316.226L595.644 328.816L601.092 328.949L592.027 346.656L596.878 346.772L587.203 365.667L593.277 365.816L580.93 389.932L587.157 390.081L571.993 419.628L578.869 419.804L563.371 449.922L587.675 418.902L613.166 262.864Z" fill="#EEF9FB"/>
<path d="M629.153 450.717H594.711L574.632 450.207L571.06 450.117L563.371 449.922L622.214 431.627L613.166 262.864L613.209 262.712L628.241 316.329L624.243 316.334L629.153 326.067V329.051L625.262 329.057L629.153 336.771V450.717Z" fill="#B4CDC2"/>
<path d="M614.776 505.083C614.776 506.398 613.917 507.467 612.857 507.467C611.798 507.467 610.939 506.398 610.939 505.083V359.54C610.939 358.223 611.798 357.154 612.857 357.154C613.917 357.154 614.776 358.223 614.776 359.54V505.083Z" fill="#779B97"/>
<path d="M615.618 426.287C614.869 427.217 613.654 427.217 612.905 426.285C612.155 425.353 612.155 423.843 612.905 422.913L628.324 403.738C629.073 402.808 630.288 402.808 631.037 403.738C631.787 404.67 631.787 406.18 631.037 407.112L615.618 426.287Z" fill="#779B97"/>
<path d="M612.489 395.87C613.238 396.802 613.238 398.312 612.489 399.244C611.74 400.177 610.526 400.177 609.775 399.244L594.356 380.072C593.607 379.14 593.607 377.629 594.356 376.697C595.105 375.765 596.32 375.765 597.07 376.697L612.489 395.87Z" fill="#779B97"/>
<path d="M608.781 341.553C607.458 341.553 606.383 340.22 606.383 338.572C606.383 336.925 607.458 335.589 608.781 335.589C610.106 335.589 611.181 336.925 611.181 338.572C611.181 340.22 610.106 341.553 608.781 341.553Z" fill="#B4CDC2"/>
<path d="M595.531 398.447C594.371 398.447 593.432 397.278 593.432 395.836C593.432 394.395 594.371 393.228 595.531 393.228C596.69 393.228 597.63 394.395 597.63 395.836C597.63 397.278 596.69 398.447 595.531 398.447Z" fill="#B4CDC2"/>
<path d="M601.747 372.25C599.594 372.25 597.85 370.079 597.85 367.403C597.85 364.727 599.594 362.557 601.747 362.557C603.899 362.557 605.645 364.727 605.645 367.403C605.645 370.079 603.899 372.25 601.747 372.25Z" fill="#B4CDC2"/>
<path d="M379.651 402.729H383.094L376.615 389.854L378.038 389.853L372.762 379.395L376.162 379.39L372.025 371.191L374.084 371.188L370.206 363.501L372.527 363.498L369.768 358.031L371.488 358.028L365.025 334.977L358.51 357.942L360.244 357.985L357.473 363.397L359.815 363.454L355.918 371.067L358.003 371.117L353.844 379.242L356.455 379.305L351.146 389.673L353.824 389.737L347.304 402.44L350.26 402.516L343.597 415.465L357.072 415.807H386.251L379.651 402.729Z" fill="#D7F1F2"/>
<path d="M365.006 335.042L358.51 357.942L360.244 357.985L357.473 363.397L359.815 363.454L355.918 371.067L358.003 371.117L353.844 379.242L356.455 379.305L351.146 389.673L353.824 389.737L347.304 402.44L350.26 402.516L343.597 415.465L354.046 402.129L365.006 335.042Z" fill="#EEF9FB"/>
<path d="M386.251 415.807H357.071L353.738 415.722L352.254 412.773L368.896 407.599L365.005 335.042L365.024 334.977L371.487 358.028L369.768 358.031L372.526 363.498L370.206 363.501L374.084 371.188L372.025 371.191L376.161 379.39L372.761 379.395L378.037 389.853L376.614 389.854L383.093 402.729H379.651L386.251 415.807Z" fill="#B4CDC2"/>
<path d="M365.698 439.18C365.698 439.747 365.329 440.206 364.873 440.206C364.418 440.206 364.048 439.747 364.048 439.18V376.607C364.048 376.04 364.418 375.581 364.873 375.581C365.329 375.581 365.698 376.04 365.698 376.607V439.18Z" fill="#779B97"/>
<path d="M366.06 405.304C365.737 405.704 365.215 405.704 364.893 405.303C364.572 404.903 364.572 404.253 364.893 403.853L371.522 395.609C371.845 395.209 372.367 395.209 372.689 395.609C373.011 396.01 373.011 396.66 372.689 397.06L366.06 405.304Z" fill="#779B97"/>
<path d="M364.715 392.227C365.036 392.627 365.036 393.277 364.715 393.677C364.392 394.078 363.87 394.078 363.548 393.677L356.919 385.434C356.596 385.034 356.596 384.384 356.919 383.983C357.241 383.583 357.763 383.583 358.086 383.983L364.715 392.227Z" fill="#779B97"/>
<path d="M363.121 368.874C362.551 368.874 362.089 368.3 362.089 367.591C362.089 366.884 362.551 366.309 363.121 366.309C363.69 366.309 364.152 366.884 364.152 367.591C364.152 368.3 363.69 368.874 363.121 368.874Z" fill="#B4CDC2"/>
<path d="M357.424 393.334C356.925 393.334 356.522 392.831 356.522 392.212C356.522 391.592 356.925 391.09 357.424 391.09C357.923 391.09 358.326 391.592 358.326 392.212C358.326 392.831 357.923 393.334 357.424 393.334Z" fill="#B4CDC2"/>
<path d="M360.096 382.071C359.17 382.071 358.42 381.138 358.42 379.987C358.42 378.837 359.17 377.904 360.096 377.904C361.021 377.904 361.771 378.837 361.771 379.987C361.771 381.138 361.021 382.071 360.096 382.071Z" fill="#B4CDC2"/>
<path d="M351.491 417.24H354.502L348.835 405.979L350.079 405.978L345.465 396.832L348.439 396.828L344.821 389.657L346.622 389.654L343.23 382.932L345.259 382.929L342.847 378.147L344.351 378.145L338.698 357.985L333.001 378.07L334.518 378.107L332.093 382.841L334.142 382.891L330.733 389.549L332.557 389.593L328.919 396.697L331.203 396.753L326.561 405.821L328.902 405.878L323.2 416.988L325.786 417.054L319.958 428.379L331.743 428.677H357.263L351.491 417.24Z" fill="#D7F1F2"/>
<path d="M338.682 358.041L333.001 378.07L334.518 378.107L332.093 382.841L334.142 382.891L330.733 389.549L332.557 389.593L328.919 396.697L331.203 396.753L326.561 405.821L328.902 405.878L323.2 416.988L325.786 417.054L319.958 428.379L329.097 416.715L338.682 358.041Z" fill="#EEF9FB"/>
<path d="M357.263 428.677H331.743L319.958 428.379L342.084 421.5L338.682 358.041L338.698 357.985L344.351 378.145L342.847 378.147L345.259 382.929L343.23 382.932L346.622 389.654L344.821 389.657L348.439 396.828L345.465 396.832L350.079 405.978L348.835 405.979L354.502 417.24H351.491L357.263 428.677Z" fill="#B4CDC2"/>
<path d="M339.287 449.12C339.287 449.615 338.965 450.017 338.566 450.017C338.167 450.017 337.844 449.615 337.844 449.12V394.393C337.844 393.898 338.167 393.497 338.566 393.497C338.965 393.497 339.287 393.898 339.287 394.393V449.12Z" fill="#779B97"/>
<path d="M339.605 419.491C339.323 419.841 338.866 419.841 338.584 419.49C338.302 419.14 338.302 418.573 338.584 418.222L344.382 411.013C344.664 410.663 345.121 410.663 345.403 411.013C345.684 411.363 345.684 411.931 345.403 412.281L339.605 419.491Z" fill="#779B97"/>
<path d="M338.428 408.055C338.709 408.405 338.709 408.973 338.428 409.323C338.146 409.673 337.689 409.673 337.408 409.323L331.61 402.114C331.328 401.763 331.328 401.195 331.61 400.845C331.891 400.494 332.348 400.494 332.63 400.845L338.428 408.055Z" fill="#779B97"/>
<path d="M337.034 387.631C336.537 387.631 336.132 387.129 336.132 386.509C336.132 385.89 336.537 385.388 337.034 385.388C337.532 385.388 337.936 385.89 337.936 386.509C337.936 387.129 337.532 387.631 337.034 387.631Z" fill="#B4CDC2"/>
<path d="M332.051 409.023C331.615 409.023 331.261 408.583 331.261 408.042C331.261 407.5 331.615 407.06 332.051 407.06C332.486 407.06 332.839 407.5 332.839 408.042C332.839 408.583 332.486 409.023 332.051 409.023Z" fill="#B4CDC2"/>
<path d="M334.388 399.172C333.578 399.172 332.923 398.356 332.923 397.349C332.923 396.344 333.578 395.528 334.388 395.528C335.197 395.528 335.854 396.344 335.854 397.349C335.854 398.356 335.197 399.172 334.388 399.172Z" fill="#B4CDC2"/>
<path d="M440.162 652.677C433.608 652.677 427.019 651.975 420.484 651.27C387.313 647.698 354.143 644.125 320.972 640.552C316.886 640.112 312.655 639.618 309.085 637.106C305.515 634.592 302.789 629.462 303.725 624.495C304.963 617.932 311.286 615.393 316.637 614.312C328.226 611.969 339.877 611.081 351.569 611.081C379.146 611.081 406.935 616.023 434.556 618.48C436.377 618.642 438.256 618.768 440.133 618.768C445.825 618.768 451.499 617.611 455.456 612.799L466.601 611.755C478.061 613.921 489.664 616.088 501.211 616.087C505.943 616.087 510.669 615.722 515.367 614.845C526.885 612.694 537.905 607.51 549.352 604.838C557.121 603.024 565.012 602.386 572.924 602.386C578.86 602.386 584.808 602.745 590.726 603.239C597.986 603.846 606.827 606.164 608.917 614.83C610.307 620.59 607.746 626.933 603.928 630.624C600.11 634.315 595.273 635.896 590.555 637.219C572.641 642.236 554.279 644.765 535.916 644.765C529.642 644.765 523.367 644.469 517.111 643.878C509.173 643.127 501.189 641.903 493.253 641.903C489.636 641.903 486.028 642.156 482.439 642.826C472.968 644.593 463.972 649.2 454.539 651.26C449.786 652.297 444.983 652.677 440.162 652.677Z" fill="#8BA9A1"/>
<path d="M424.33 381.597C424.33 381.597 426.053 394.071 442.286 398.92L444.337 396.238V399.753C444.337 399.753 456.052 402.728 464.768 399.753V396.238L466.975 399.753C466.975 399.753 488.758 387.768 486.996 370.774C485.235 353.78 470.128 345.917 470.128 345.917C470.128 345.917 465.9 339.94 463.66 339.489C461.422 339.038 444.191 340.955 443.873 341.293C443.556 341.632 436.301 356.602 432.764 359.604C429.227 362.607 427.504 367.534 426.234 370.201C424.965 372.87 423.513 379.313 423.513 379.313L424.33 381.597Z" fill="#263238"/>
<path d="M439.852 368.695C441.631 373.269 441.525 377.907 439.617 379.055C437.707 380.203 434.718 377.426 432.939 372.853C431.16 368.28 431.266 363.642 433.175 362.494C435.084 361.346 438.073 364.123 439.852 368.695Z" fill="#F1C596"/>
<path d="M468.243 368.695C466.464 373.269 466.57 377.907 468.479 379.055C470.388 380.203 473.377 377.426 475.156 372.853C476.934 368.28 476.829 363.642 474.92 362.494C473.011 361.346 470.021 364.123 468.243 368.695Z" fill="#F1C596"/>
<path d="M473.079 424.161C467.059 421.857 462.775 415.224 462.267 407.417L460.933 386.966L455.295 382.588V380.651L454.048 381.619L452.801 380.651V382.588L447.163 386.966L445.829 407.417C445.32 415.224 441.036 421.857 435.016 424.161L411.975 432.976H452.801H455.295H496.121L473.079 424.161Z" fill="#F5D5CC"/>
<path d="M446.178 402.062L446.301 400.171H446.302L446.178 402.062Z" fill="#8A9081"/>
<path d="M445.882 406.595L446.178 402.061L445.883 406.595" fill="#576A60"/>
<path d="M446.301 400.171H446.301L446.615 395.356L446.301 400.171Z" fill="#673A26"/>
<path d="M454.048 411.827C451.638 411.827 448.714 409.915 445.882 406.595L446.178 402.062L446.302 400.171L446.616 395.356C449.213 398.164 451.845 399.753 454.048 399.753C456.122 399.753 458.785 398.052 461.461 395.063L462.192 406.285C459.275 409.802 456.312 411.827 454.048 411.827Z" fill="#F5D5CC"/>
<path d="M411.975 432.977H496.121L490.089 455.002C488.897 459.352 485.611 462.278 481.915 462.278H425.084C421.205 462.278 417.803 459.062 416.764 454.414L411.975 432.977Z" fill="#FEF0D6"/>
<path d="M473.213 361.269C473.213 382.523 460.652 399.753 454.048 399.753C446.795 399.753 434.882 382.523 434.882 361.269C434.882 340.015 443.462 331.038 454.048 331.038C464.633 331.038 473.213 340.015 473.213 361.269Z" fill="#F5D5CC"/>
<path d="M470.442 379.184L470.106 379.011C471.684 374.309 472.635 369.444 472.932 364.551L473.294 364.585C472.993 369.526 472.034 374.438 470.442 379.184Z" fill="#BF641D"/>
<path d="M434.903 366.094C434.769 364.492 434.701 362.867 434.701 361.269C434.701 351.158 436.604 343.34 440.359 338.035C443.703 333.31 448.436 330.812 454.048 330.812C459.659 330.812 464.393 333.31 467.736 338.035C471.491 343.34 473.395 351.158 473.395 361.269C473.395 362.366 473.361 363.481 473.294 364.585L472.932 364.551C472.999 363.459 473.033 362.355 473.033 361.269C473.033 342.481 465.935 331.264 454.048 331.264C442.16 331.264 435.063 342.481 435.063 361.269C435.063 362.852 435.131 364.46 435.264 366.048L434.903 366.094Z" fill="#BF641D"/>
<path d="M437.528 379.181C436.16 374.951 435.277 370.548 434.903 366.094L435.263 366.048C435.634 370.459 436.509 374.821 437.865 379.013L437.528 379.181Z" fill="#BF641D"/>
<path d="M469.538 362.19C468.746 362.01 467.928 361.892 467.135 361.836C466.338 361.783 465.55 361.771 464.769 361.847C463.989 361.922 463.215 362.023 462.455 362.233C462.071 362.314 461.692 362.41 461.286 362.419C460.881 362.434 460.47 362.453 459.988 362.298L459.948 362.285C459.727 362.215 459.595 361.935 459.653 361.662C459.668 361.587 459.696 361.52 459.733 361.464C460.362 360.516 461.21 360.038 462.089 359.844C462.967 359.63 463.868 359.577 464.758 359.617C465.65 359.659 466.533 359.857 467.381 360.167C468.23 360.486 469.039 360.914 469.778 361.573C469.903 361.684 469.932 361.901 469.842 362.057C469.777 362.17 469.668 362.22 469.565 362.196L469.538 362.19Z" fill="#3E2118"/>
<path d="M439.134 364.366C439.915 364.117 440.724 363.93 441.512 363.807C442.304 363.685 443.09 363.605 443.873 363.615C444.655 363.623 445.433 363.657 446.202 363.802C446.589 363.85 446.974 363.913 447.378 363.887C447.784 363.868 448.194 363.852 448.666 363.656L448.707 363.639C448.922 363.55 449.038 363.26 448.967 362.991C448.947 362.919 448.914 362.854 448.875 362.801C448.196 361.909 447.323 361.505 446.435 361.388C445.547 361.249 444.645 361.273 443.76 361.389C442.873 361.508 442.003 361.781 441.174 362.163C440.344 362.553 439.562 363.049 438.86 363.77C438.741 363.892 438.725 364.111 438.823 364.259C438.894 364.366 439.006 364.407 439.108 364.374L439.134 364.366Z" fill="#3E2118"/>
<path d="M439.497 368.764C439.497 368.764 444.644 364.802 449.177 369.678C449.177 369.678 444.092 373.944 439.497 368.764Z" fill="#F0F5D7"/>
<path d="M444.611 371.552C443.087 371.552 441.353 370.997 439.669 369.247C439.592 369.168 439.582 369.026 439.646 368.93C439.71 368.835 439.825 368.822 439.901 368.901C443.622 372.766 447.611 370.517 448.745 369.736C448.832 369.676 448.942 369.715 448.992 369.824C449.04 369.932 449.008 370.07 448.921 370.131C448.247 370.594 446.612 371.552 444.611 371.552Z" fill="#221E1A"/>
<path d="M449.177 369.678C448.889 369.37 448.578 369.128 448.253 368.925C447.938 368.706 447.597 368.556 447.267 368.403C446.594 368.113 445.894 367.969 445.196 367.873C444.498 367.762 443.786 367.785 443.079 367.794L442.013 367.886C441.657 367.947 441.301 367.987 440.941 368.01L441.05 367.976C440.839 368.044 440.718 368.049 440.558 368.058C440.408 368.055 440.259 368.042 440.114 368.008C439.824 367.936 439.545 367.803 439.311 367.601C439.077 367.399 438.877 367.155 438.739 366.87C438.591 366.6 438.504 366.29 438.456 365.983C438.571 366.059 438.675 366.137 438.776 366.21C438.886 366.271 438.979 366.346 439.083 366.396C439.282 366.51 439.482 366.569 439.665 366.614C439.851 366.654 440.03 366.655 440.201 366.632C440.287 366.624 440.371 366.605 440.451 366.581C440.521 366.56 440.63 366.519 440.641 366.503L440.647 366.494L440.751 366.47C441.129 366.38 441.511 366.309 441.894 366.257C442.281 366.23 442.668 366.203 443.056 366.196C443.835 366.218 444.618 366.29 445.385 366.529C446.15 366.749 446.897 367.105 447.568 367.622C448.224 368.149 448.843 368.812 449.177 369.678Z" fill="#221E1A"/>
<path d="M445.808 369.073C445.808 370.083 445.149 370.902 444.337 370.902C443.525 370.902 442.867 370.083 442.867 369.073C442.867 368.063 443.525 367.245 444.337 367.245C445.149 367.245 445.808 368.063 445.808 369.073Z" fill="#221E1A"/>
<path d="M443.125 368.388C443.239 368.27 443.407 368.29 443.501 368.43C443.595 368.571 443.58 368.78 443.467 368.897C443.354 369.015 443.186 368.995 443.091 368.854C442.997 368.714 443.012 368.505 443.125 368.388Z" fill="#F0F5D7"/>
<path d="M469.087 368.764C469.087 368.764 463.94 364.802 459.407 369.678C459.407 369.678 464.492 373.944 469.087 368.764Z" fill="#F0F5D7"/>
<path d="M463.973 371.552C461.971 371.552 460.336 370.594 459.663 370.131C459.576 370.07 459.544 369.932 459.593 369.824C459.641 369.715 459.751 369.676 459.839 369.736C460.973 370.517 464.963 372.766 468.682 368.901C468.758 368.821 468.874 368.835 468.938 368.93C469.002 369.026 468.992 369.168 468.915 369.247C467.232 370.997 465.496 371.552 463.973 371.552Z" fill="#221E1A"/>
<path d="M459.407 369.678C459.695 369.37 460.007 369.128 460.331 368.925C460.646 368.706 460.987 368.556 461.318 368.403C461.99 368.113 462.691 367.969 463.389 367.873C464.087 367.762 464.799 367.785 465.506 367.794L466.572 367.887C466.927 367.947 467.283 367.987 467.643 368.01L467.535 367.976C467.745 368.044 467.866 368.049 468.026 368.058C468.176 368.055 468.325 368.042 468.471 368.008C468.76 367.936 469.039 367.803 469.274 367.601C469.507 367.399 469.707 367.155 469.845 366.87C469.994 366.6 470.08 366.29 470.128 365.983C470.013 366.059 469.909 366.138 469.809 366.21C469.698 366.271 469.605 366.346 469.502 366.396C469.303 366.51 469.102 366.569 468.919 366.614C468.733 366.654 468.554 366.655 468.383 366.632C468.297 366.624 468.214 366.605 468.133 366.58C468.063 366.56 467.954 366.519 467.943 366.503L467.937 366.494L467.834 366.47C467.456 366.38 467.074 366.309 466.69 366.257C466.304 366.23 465.916 366.203 465.528 366.196C464.749 366.218 463.966 366.29 463.2 366.529C462.435 366.749 461.687 367.105 461.017 367.622C460.361 368.149 459.741 368.812 459.407 369.678Z" fill="#221E1A"/>
<path d="M462.776 369.073C462.776 370.083 463.435 370.902 464.247 370.902C465.059 370.902 465.717 370.083 465.717 369.073C465.717 368.063 465.059 367.245 464.247 367.245C463.435 367.245 462.776 368.063 462.776 369.073Z" fill="#221E1A"/>
<path d="M465.459 368.388C465.345 368.27 465.177 368.29 465.082 368.43C464.988 368.571 465.003 368.78 465.117 368.897C465.23 369.015 465.398 368.995 465.492 368.854C465.586 368.714 465.571 368.505 465.459 368.388Z" fill="#F0F5D7"/>
<path d="M456.186 381.823C456.075 381.823 455.961 381.8 455.85 381.753L452.933 380.535L453.048 380.109L455.965 381.326C456.208 381.425 456.462 381.356 456.646 381.137C456.831 380.918 456.899 380.606 456.83 380.301L454.899 371.776C454.514 370.077 454.538 368.29 454.968 366.608L455.177 365.791L455.523 365.928L455.314 366.745C454.906 368.343 454.883 370.04 455.249 371.654L457.18 380.179C457.286 380.648 457.18 381.129 456.896 381.464C456.698 381.7 456.446 381.823 456.186 381.823Z" fill="#9D5D41"/>
<path d="M458.718 386.333C458.466 386.297 458.219 386.227 457.981 386.125L455.647 385.13C455.412 385.029 455.149 385.118 454.988 385.353L454.602 385.913C454.555 385.981 454.498 386.038 454.436 386.082L454.304 386.173L454.173 386.082C454.11 386.038 454.054 385.981 454.006 385.913L453.621 385.353C453.458 385.118 453.197 385.029 452.961 385.13L450.629 386.125C450.389 386.227 450.142 386.297 449.89 386.333L449.482 386.392L451.306 387.256C451.779 387.48 452.281 387.594 452.788 387.594H454.012H454.596H454.954H455.821C456.327 387.594 456.829 387.48 457.302 387.256L459.126 386.392L458.718 386.333Z" fill="#BF641D"/>
<path d="M454.218 390.001C451.974 390.001 450.197 388.645 450.171 388.623L450.363 388.241C450.401 388.27 454.206 391.169 457.6 388.247L457.807 388.618C456.601 389.655 455.35 390.001 454.218 390.001Z" fill="#BF641D"/>
<path d="M463.663 363.065C460.111 363.065 457.22 366.659 457.22 371.077C457.22 375.495 460.111 379.088 463.663 379.088C467.215 379.088 470.106 375.495 470.106 371.077C470.106 366.659 467.215 363.065 463.663 363.065ZM463.663 379.54C459.911 379.54 456.857 375.743 456.857 371.077C456.857 366.41 459.911 362.614 463.663 362.614C467.415 362.614 470.469 366.41 470.469 371.077C470.469 375.743 467.415 379.54 463.663 379.54Z" fill="#2D1914"/>
<path d="M451.53 370.357L451.266 370.047C451.323 369.971 452.703 368.212 454.468 368.24C455.473 368.268 456.396 368.878 457.213 370.054L456.938 370.349C456.192 369.275 455.359 368.717 454.462 368.691L454.399 368.69C452.816 368.69 451.543 370.34 451.53 370.357Z" fill="#2D1914"/>
<path d="M471.829 371.303H470.287V370.851H471.57L473.319 364.495L473.662 364.641L471.829 371.303Z" fill="#2D1914"/>
<path d="M438.137 371.303H436.594L434.761 364.641L435.104 364.495L436.854 370.851H438.137V371.303Z" fill="#2D1914"/>
<path d="M439.51 368.753C438.097 368.612 436.927 368.377 436.117 368.179L435.168 364.729C435.098 363.574 435.062 362.415 435.062 361.269C435.062 354.072 436.103 347.987 438.057 343.216C442.028 340.805 447.697 337.46 447.697 337.46C447.697 337.46 453.662 337.21 457.747 337.21C459.789 337.21 461.362 337.273 461.482 337.46C461.845 338.025 470.189 341.707 466.975 342.026C463.762 342.345 460.821 353.436 460.821 353.436C460.522 359.901 456.04 363.501 456.04 363.501C453.505 365.895 450.735 367.288 448.06 368.054C447.9 367.901 447.735 367.756 447.567 367.622C446.897 367.105 446.149 366.749 445.384 366.528C444.618 366.29 443.835 366.218 443.056 366.196C442.668 366.203 442.28 366.23 441.894 366.257C441.51 366.308 441.128 366.38 440.75 366.469L440.647 366.494L440.641 366.503C440.63 366.519 440.521 366.56 440.451 366.581C440.37 366.605 440.286 366.624 440.201 366.632C440.128 366.641 440.055 366.646 439.979 366.646C439.877 366.646 439.772 366.637 439.665 366.614C439.482 366.569 439.281 366.51 439.082 366.396C438.979 366.346 438.885 366.271 438.775 366.21C438.675 366.137 438.571 366.059 438.455 365.983C438.504 366.29 438.59 366.6 438.739 366.87C438.877 367.155 439.077 367.399 439.31 367.601C439.545 367.803 439.824 367.936 440.114 368.008C440.259 368.041 440.407 368.055 440.558 368.058C440.613 368.054 440.663 368.052 440.714 368.047C440.029 368.376 439.591 368.693 439.51 368.753ZM445.164 361.293C444.694 361.293 444.225 361.329 443.76 361.389C442.872 361.508 442.002 361.781 441.173 362.163C440.344 362.554 439.561 363.05 438.86 363.77C438.741 363.892 438.724 364.111 438.823 364.259C438.878 364.343 438.958 364.386 439.038 364.386C439.061 364.386 439.084 364.382 439.107 364.374L439.134 364.366C439.914 364.117 440.724 363.93 441.512 363.807C442.26 363.692 443.004 363.614 443.745 363.614C443.788 363.614 443.83 363.614 443.873 363.615C444.655 363.623 445.433 363.658 446.202 363.803C446.528 363.843 446.851 363.893 447.188 363.893C447.251 363.893 447.314 363.892 447.378 363.887C447.784 363.868 448.194 363.853 448.666 363.656L448.707 363.639C448.922 363.55 449.038 363.26 448.966 362.991C448.947 362.92 448.914 362.854 448.875 362.802C448.196 361.909 447.322 361.506 446.435 361.388C446.014 361.322 445.589 361.293 445.164 361.293Z" fill="#9B734F"/>
<path d="M435.169 364.729L435.104 364.495L434.979 364.548C434.916 363.467 434.882 362.375 434.882 361.269C434.882 353.883 435.92 347.983 437.716 343.424C437.829 343.355 437.942 343.286 438.057 343.216C436.104 347.987 435.063 354.072 435.063 361.269C435.063 362.415 435.099 363.574 435.169 364.729Z" fill="#7C3A1A"/>
<path d="M439.038 364.386C438.958 364.386 438.878 364.343 438.823 364.259C438.725 364.111 438.741 363.892 438.86 363.77C439.562 363.05 440.344 362.554 441.174 362.163C442.003 361.781 442.873 361.508 443.76 361.389C444.225 361.329 444.695 361.293 445.165 361.293C445.589 361.293 446.014 361.322 446.435 361.388C447.323 361.506 448.196 361.91 448.875 362.802C448.914 362.854 448.947 362.92 448.967 362.991C449.038 363.26 448.922 363.55 448.707 363.639L448.666 363.656C448.194 363.853 447.784 363.868 447.378 363.887C447.315 363.892 447.251 363.894 447.188 363.894C446.852 363.894 446.528 363.843 446.202 363.803C445.433 363.658 444.655 363.623 443.873 363.615C443.83 363.615 443.788 363.615 443.745 363.615C443.004 363.615 442.26 363.692 441.512 363.807C440.724 363.931 439.915 364.117 439.134 364.366L439.108 364.374C439.085 364.382 439.061 364.386 439.038 364.386Z" fill="#291813"/>
<path d="M441.992 368.877C441.107 368.877 440.273 368.829 439.51 368.753C439.591 368.693 440.029 368.375 440.714 368.047C440.799 368.039 440.886 368.025 440.998 367.992L440.941 368.009C441.3 367.987 441.657 367.947 442.013 367.885L443.078 367.794C443.148 367.793 443.218 367.792 443.289 367.791C443.065 368.074 442.915 368.446 442.877 368.861C442.577 368.872 442.281 368.877 441.992 368.877ZM445.751 368.573C445.696 368.329 445.6 368.105 445.474 367.913C446.005 367.998 446.535 368.118 447.051 368.315C446.613 368.416 446.18 368.502 445.751 368.573Z" fill="#9A9071"/>
<path d="M447.051 368.315C446.536 368.118 446.005 367.998 445.475 367.914C445.205 367.505 444.795 367.245 444.338 367.245C443.927 367.245 443.556 367.454 443.289 367.791C443.219 367.793 443.149 367.793 443.079 367.794L442.013 367.886C441.657 367.947 441.301 367.987 440.941 368.01L440.998 367.992C440.886 368.025 440.8 368.039 440.715 368.048C440.664 368.052 440.613 368.054 440.558 368.058C440.408 368.055 440.259 368.041 440.114 368.008C439.824 367.936 439.545 367.803 439.311 367.601C439.077 367.399 438.877 367.155 438.739 366.87C438.591 366.6 438.504 366.29 438.456 365.983C438.571 366.059 438.675 366.137 438.776 366.21C438.886 366.271 438.979 366.346 439.083 366.396C439.282 366.51 439.482 366.569 439.665 366.614C439.772 366.637 439.877 366.646 439.98 366.646C440.055 366.646 440.129 366.641 440.201 366.632C440.287 366.624 440.371 366.605 440.451 366.581C440.521 366.56 440.63 366.519 440.641 366.503L440.647 366.494L440.751 366.47C441.129 366.38 441.511 366.308 441.894 366.257C442.281 366.23 442.668 366.203 443.056 366.196C443.835 366.218 444.618 366.29 445.385 366.529C446.15 366.749 446.897 367.105 447.568 367.622C447.735 367.756 447.901 367.901 448.06 368.054C447.722 368.151 447.386 368.238 447.051 368.315Z" fill="#1B1714"/>
<path d="M442.877 368.861C442.916 368.446 443.066 368.074 443.289 367.791C443.556 367.454 443.927 367.245 444.338 367.245C444.796 367.245 445.205 367.505 445.475 367.913C445.601 368.105 445.697 368.329 445.752 368.573C444.988 368.701 444.24 368.782 443.517 368.829C443.583 368.71 443.58 368.546 443.502 368.43C443.449 368.351 443.373 368.31 443.297 368.31C443.237 368.31 443.176 368.335 443.126 368.387C443.013 368.504 442.998 368.711 443.091 368.852C443.019 368.856 442.948 368.859 442.877 368.861Z" fill="#1B1714"/>
<path d="M443.09 368.853C442.997 368.712 443.013 368.504 443.125 368.388C443.175 368.336 443.236 368.311 443.296 368.311C443.372 368.311 443.448 368.352 443.501 368.43C443.579 368.547 443.582 368.71 443.516 368.83C443.374 368.839 443.231 368.846 443.09 368.853Z" fill="#9A9071"/>
<path d="M435.706 368.074C435.618 368.051 435.537 368.028 435.462 368.008C435.409 367.562 435.361 367.116 435.319 366.67L435.706 368.074Z" fill="#9B734F"/>
<path d="M435.089 366.07C435.079 365.957 435.07 365.844 435.061 365.732L435.152 366.062L435.089 366.07Z" fill="#7C3A1A"/>
<path d="M435.462 368.007C435.396 367.988 435.335 367.971 435.281 367.954C435.208 367.331 435.144 366.703 435.09 366.07L435.152 366.062L435.319 366.67C435.361 367.116 435.409 367.562 435.462 368.007Z" fill="#7C3A1A"/>
<path d="M436.118 368.179C435.968 368.143 435.83 368.107 435.706 368.074L435.32 366.67L435.152 366.062L435.062 365.733C435.031 365.34 435.003 364.944 434.98 364.547L435.104 364.494L435.169 364.729L436.118 368.179Z" fill="#211512"/>
<path d="M462.536 343.049C462.536 343.049 459.835 346.408 457.435 353.87C457.435 353.87 453.985 367.488 437.332 364.876C437.332 364.876 427.58 378.868 430.281 388.382C430.281 388.382 432.531 395.471 440.032 390.434C440.032 390.434 438.532 395.098 436.282 395.657C436.282 395.657 438.832 403.68 432.681 404.053C432.681 404.053 436.581 400.695 432.681 396.031C432.681 396.031 424.879 394.166 425.029 386.143C425.029 386.143 423.68 385.957 424.129 391.74C424.129 391.74 416.328 389.501 417.528 379.8C417.528 379.8 415.927 382.599 417.403 386.89C417.403 386.89 411.227 377.748 411.077 375.137C411.077 375.137 408.377 371.779 419.778 364.69L422.029 362.824C422.029 362.824 409.577 365.063 416.328 348.273C416.328 348.273 414.328 356.907 420.079 358.347C420.079 358.347 426.83 357.041 428.63 353.31C428.63 353.31 423.83 344.542 432.081 338.759C432.081 338.759 439.732 332.416 442.433 329.245C442.433 329.245 455.635 314.133 461.186 330.737C461.186 330.737 462.536 335.401 462.536 343.049Z" fill="#263238"/>
<path d="M444.81 363.065C441.258 363.065 438.368 366.659 438.368 371.077C438.368 375.495 441.258 379.088 444.81 379.088C448.363 379.088 451.253 375.495 451.253 371.077C451.253 366.659 448.363 363.065 444.81 363.065ZM444.81 379.54C441.058 379.54 438.005 375.743 438.005 371.077C438.005 366.41 441.058 362.614 444.81 362.614C448.563 362.614 451.616 366.41 451.616 371.077C451.616 375.743 448.563 379.54 444.81 379.54Z" fill="#2D1914"/>
<path d="M427.621 342.377L427.31 342.145C427.367 342.025 428.769 339.211 433.799 336.902C433.861 336.871 440.547 333.484 445.757 328.371L445.982 328.725C440.73 333.879 433.997 337.289 433.93 337.323C429.031 339.571 427.634 342.349 427.621 342.377Z" fill="#E2A374"/>
<path d="M431.625 397.259C431.58 397.244 427.089 395.728 425.261 390.993C424.076 387.924 424.245 384.211 425.766 379.958L426.097 380.141C424.622 384.267 424.451 387.851 425.586 390.795C427.34 395.341 431.673 396.807 431.716 396.823L431.625 397.259Z" fill="#E2A374"/>
<path d="M410.373 371.432L410.051 371.225C410.11 371.083 411.544 367.716 415.614 365.848C415.953 365.692 416.273 365.545 416.581 365.381C418.128 364.556 423.342 361.685 425.451 359.434L425.687 359.776C423.539 362.07 418.284 364.963 416.724 365.796C416.408 365.964 416.084 366.113 415.77 366.257C411.8 368.079 410.387 371.398 410.373 371.432Z" fill="#E2A374"/>
<path d="M431.51 386.446C431.407 386.199 429.086 380.218 438.964 364.237L439.251 364.512C429.552 380.205 431.809 386.18 431.832 386.238L431.51 386.446Z" fill="#F5D5CC"/>
<path d="M492.633 380.724L492.29 380.578C492.317 380.478 494.98 370.59 490.802 367.438L490.991 367.051C495.418 370.392 492.749 380.304 492.633 380.724Z" fill="#E2A374"/>
<path d="M462.537 343.049C462.537 343.049 472.578 342.309 471.694 365.395L473.039 363.501C473.039 363.501 481.891 382.226 470.039 395.284C470.039 395.284 477.69 392.486 478.29 386.143C478.29 386.143 477.99 395.284 473.49 400.694C473.49 400.694 481.441 399.016 483.691 385.398C483.691 385.398 485.341 388.382 483.691 391.74C483.691 391.74 496.744 380.733 491.643 367.861C491.643 367.861 493.893 368.794 494.343 373.644C494.343 373.644 500.944 365.25 494.343 358.16C494.343 358.16 492.09 355.135 487.584 354.555C484.649 354.177 482.167 351.678 481.147 348.234L477.272 335.139C476.055 331.028 473.467 327.705 470.13 326.306C467.422 325.171 464.023 325.187 460.388 328.676C460.388 328.676 462.537 334.31 462.537 343.049Z" fill="#263238"/>
<path d="M492.352 354.519C492.332 354.499 490.294 352.634 487.211 352.307C484.866 352.058 482.737 350.569 481.37 348.222C480.33 346.435 479.266 344.115 478.207 341.326L478.535 341.133C479.584 343.897 480.636 346.193 481.664 347.958C482.969 350.198 485.002 351.62 487.242 351.857C490.434 352.196 492.484 354.077 492.569 354.157L492.352 354.519Z" fill="#E2A374"/>
<path d="M470.03 393.735L469.762 393.43C469.861 393.296 479.536 379.824 472.138 362.947L472.457 362.732C479.981 379.897 470.13 393.598 470.03 393.735Z" fill="#E2A374"/>
<path d="M437.478 379.098C437.478 379.845 436.991 380.451 436.39 380.451C435.789 380.451 435.302 379.845 435.302 379.098C435.302 378.35 435.789 377.745 436.39 377.745C436.991 377.745 437.478 378.35 437.478 379.098Z" fill="#BA4927"/>
<path d="M472.788 379.098C472.788 379.845 472.3 380.451 471.7 380.451C471.099 380.451 470.612 379.845 470.612 379.098C470.612 378.35 471.099 377.745 471.7 377.745C472.3 377.745 472.788 378.35 472.788 379.098Z" fill="#BA4927"/>
<path d="M487.988 530.845C487.809 529.617 487.501 528.43 487.073 527.311C484.673 521.034 483.168 514.288 483.168 507.338V506.598C483.168 504.707 483.475 502.835 484.07 501.094L489.204 486.071C489.588 484.947 489.853 483.764 489.992 482.555L495.678 432.977H489.292V430.364L479.239 426.518V432.977H453.663H429.948V426.099L421.193 429.45V432.977H413.68C412.608 432.977 411.784 434.156 411.936 435.477L417.335 482.555C417.473 483.764 417.738 484.947 418.123 486.071L423.256 501.094C423.851 502.835 424.158 504.707 424.158 506.598V507.338C424.158 514.288 422.654 521.034 420.254 527.311C419.826 528.43 419.518 529.617 419.338 530.845L411.83 582.326C411.71 583.155 411.649 583.996 411.649 584.838C411.649 603.514 423.824 618.654 438.843 618.654H453.663H468.483C483.502 618.654 495.678 603.514 495.678 584.838V584.838C495.678 583.996 495.617 583.155 495.496 582.326L487.988 530.845Z" fill="#1DAC92"/>
<path d="M429.948 429.449V432.977C429.948 444.157 440.983 453.221 454.593 453.221C468.205 453.221 479.239 444.157 479.239 432.977V429.449H429.948Z" fill="#F5D5CC"/>
<path d="M416.492 578.54L346.72 581.885C339.322 582.24 332.976 588.558 331.08 597.458C329.333 605.655 332.167 614.299 338.025 618.642L342.795 622.177C348.497 626.403 355.012 628.634 361.65 628.634H464.042H527.568C535.803 628.634 543.904 626.042 551.118 621.1L565.249 611.416C570.74 607.653 573.749 600.017 572.774 592.316C571.769 584.384 566.272 578.54 559.815 578.54H416.492Z" fill="#263238"/>
<path d="M438.798 608.596L438.722 608.589L413.13 603.619C408.58 602.737 404.069 601.327 399.716 599.426C391.732 595.941 383.392 594.173 374.927 594.173H361.415C361.146 594.173 360.927 593.902 360.927 593.568C360.927 593.234 361.146 592.963 361.415 592.963H374.927C383.502 592.963 391.951 594.754 400.04 598.285C404.334 600.16 408.789 601.552 413.281 602.424L438.872 607.393C439.137 607.445 439.319 607.755 439.277 608.085C439.239 608.383 439.034 608.596 438.798 608.596Z" fill="#374C46"/>
<path d="M466.419 608.052C466.181 608.052 465.973 607.835 465.939 607.534C465.9 607.203 466.085 606.896 466.35 606.848L495.366 601.626C500.653 600.675 505.818 598.848 510.717 596.196C516.475 593.079 522.56 591.093 528.805 590.294L546.413 588.039C546.661 588.001 546.919 588.246 546.946 588.579C546.974 588.912 546.78 589.208 546.512 589.242L528.904 591.497C522.759 592.283 516.771 594.237 511.105 597.304C506.126 600.001 500.878 601.859 495.505 602.824L466.49 608.046L466.419 608.052Z" fill="#374C46"/>
<path d="M460.549 606.963L455.649 600.868C452.433 596.869 447.197 596.959 444.071 601.065L436.918 610.46C436.139 611.484 435.094 612.132 433.967 612.289L430.847 612.726C430.179 612.819 429.502 612.737 428.862 612.484L419.705 608.879C416.126 607.469 412.217 608.352 409.264 611.237L407.566 612.896C406.932 613.516 406.149 613.852 405.342 613.852C404.365 613.852 403.43 614.346 402.752 615.222L399.83 618.989C398.142 621.165 398.333 624.675 400.24 626.549L402.361 628.634H408.036C408.804 628.634 409.544 628.279 410.113 627.639L412.002 625.514H418.475L422.963 627.083C427.15 628.549 431.478 629.291 435.827 629.291H451.875C454.169 629.291 456.457 628.992 458.701 628.396L463.383 627.156L468.931 627.321L466.421 607.447L463.686 608.138C462.548 608.423 461.371 607.983 460.549 606.963Z" fill="#F5D5CC"/>
<path d="M400.239 626.79C400.178 626.79 400.119 626.755 400.081 626.689C400.018 626.58 400.039 626.429 400.126 626.352L406.974 620.251C407.033 620.165 409.196 617.489 418.622 620.211C418.728 620.241 418.792 620.371 418.768 620.501C418.744 620.631 418.638 620.717 418.535 620.682C409.394 618.044 407.247 620.588 407.227 620.614L400.352 626.744L400.239 626.79Z" fill="#BF641D"/>
<path d="M402.36 628.875C402.284 628.875 402.211 628.819 402.181 628.725C402.14 628.601 402.187 628.46 402.286 628.41L405.459 626.788C406.036 626.493 406.553 626.066 406.997 625.519L409.345 622.663C409.493 622.604 412.968 621.173 417.192 622.66C417.296 622.697 417.355 622.83 417.326 622.959C417.296 623.088 417.194 623.159 417.086 623.126C413.222 621.763 409.916 622.949 409.512 623.106L407.271 625.864C406.791 626.454 406.23 626.915 405.606 627.234L402.434 628.857L402.36 628.875Z" fill="#BF641D"/>
<path d="M400.566 622.854C401.345 622.068 402.362 622.021 402.836 622.749C403.311 623.477 403.064 624.704 402.286 625.49C401.506 626.276 400.489 626.323 400.015 625.596C399.54 624.867 399.787 623.64 400.566 622.854Z" fill="#FDE0C4"/>
<path d="M402.436 626.388C403.018 625.801 403.778 625.766 404.132 626.309C404.487 626.852 404.302 627.77 403.72 628.358C403.138 628.945 402.379 628.98 402.023 628.436C401.669 627.892 401.853 626.976 402.436 626.388Z" fill="#FDE0C4"/>
<path d="M405.176 627.667C405.747 627.326 406.378 627.482 406.583 628.017C406.789 628.551 406.493 629.261 405.921 629.601C405.348 629.942 404.718 629.785 404.512 629.251C404.306 628.716 404.603 628.008 405.176 627.667Z" fill="#FDE0C4"/>
<path d="M415.498 487.174C415.771 487.174 416.028 487.069 416.275 486.915C416.27 486.749 416.269 486.583 416.264 486.418L416.361 486.862C417.345 486.168 418.057 484.346 418.057 482.201V429.886L415.757 431.263L412.971 432.814L412.94 432.834V482.201C412.94 484.937 414.091 487.174 415.498 487.174Z" fill="#F1C596"/>
<path d="M332.554 554.327C333.794 555.536 334.453 557.066 334.026 557.743C333.599 558.422 332.247 557.991 331.007 556.782C329.767 555.573 329.107 554.045 329.534 553.366C329.962 552.689 331.313 553.119 332.554 554.327Z" fill="#B1825C"/>
<path d="M417.549 472.747V430.844L413.136 432.415C404.598 435.528 398.794 445.339 398.962 456.373L399.875 516.007C400.019 525.4 396.343 534.251 390.095 539.561L383.306 545.331C381.664 546.726 380.191 548.406 378.932 550.322C377.306 552.798 375.324 554.879 373.089 556.46L355.272 569.056L346.118 564.896C343.826 563.854 341.685 562.36 339.775 560.47L333.554 554.312C332.781 553.547 331.666 553.638 330.98 554.523C330.272 555.437 330.268 556.882 330.971 557.802L337.255 566.029C338.14 567.187 338.646 568.712 338.677 570.308L338.728 572.987L336.351 576.428L330.569 574.708L329.714 575.199L328.514 573.815L326.762 571.794C325.995 570.909 324.84 570.793 323.968 571.513L322.647 570.085C321.248 568.573 319.124 568.774 317.925 570.53L326.111 580.299C327.617 582.097 329.533 583.276 331.596 583.676L333.51 585.127C335.197 586.407 337.136 587.085 339.113 587.085H341.998L362.999 579.252L382.635 569.754C390.838 565.785 398.57 560.454 405.624 553.907L409.664 550.156C411.871 548.106 413.296 545.01 413.599 541.605L414.247 534.33L415.653 526.83C418.223 513.127 419.107 499.018 418.275 484.984L417.549 472.747Z" fill="#F5D5CC"/>
<path d="M338.729 572.987L338.677 570.308C338.651 568.924 338.266 567.594 337.587 566.509C338.266 567.593 338.651 568.923 338.677 570.308L338.729 572.987ZM330.971 557.802C330.621 557.343 330.446 556.755 330.446 556.167C330.446 556.168 330.446 556.168 330.446 556.168C330.446 556.756 330.621 557.343 330.971 557.802Z" fill="#67776C"/>
<path d="M330.446 556.168C330.446 556.168 330.446 556.168 330.446 556.167C330.446 555.575 330.625 554.982 330.981 554.523C330.625 554.982 330.447 555.575 330.446 556.168Z" fill="#714A33"/>
<path d="M340.44 576.982C340.318 576.982 340.196 576.973 340.074 576.956L336.351 576.427L338.729 572.987L338.677 570.308C338.651 568.923 338.266 567.593 337.587 566.509C337.483 566.342 337.371 566.181 337.253 566.026L330.971 557.802C330.621 557.343 330.446 556.756 330.446 556.168C330.447 555.575 330.625 554.982 330.981 554.523C331.355 554.041 331.857 553.794 332.362 553.794C332.782 553.794 333.204 553.965 333.555 554.313L339.777 560.472C341.685 562.361 343.826 563.854 346.118 564.895L355.272 569.056C355.272 569.056 356.67 569.288 357.253 571.513L355.238 570.584C354.693 570.332 354.115 570.203 353.533 570.203C352.315 570.203 351.141 570.766 350.24 571.783L348.504 573.744C347.674 574.679 346.594 575.198 345.472 575.198H344.118C343.561 575.198 343.025 575.459 342.616 575.927C342.021 576.609 341.242 576.982 340.44 576.982Z" fill="#F5D5CC"/>
<path d="M333.148 557.672L333.779 558.109C334.99 558.947 335.408 560.858 334.703 562.341L333.809 564.224L332.818 572.333L334.764 575.955L330.569 574.708L329.714 575.199L328.515 573.815L329.582 564.88L333.148 557.672Z" fill="#F5D5CC"/>
<path d="M337.409 582.322L337.372 582.304L328.557 578.179C328.476 578.142 328.412 578.063 328.382 577.962C328.352 577.861 328.359 577.75 328.401 577.655L329.526 575.121C329.541 575.036 329.582 574.939 329.661 574.857C329.993 574.51 330.869 574.548 332.266 574.963L336.397 576.192L340.095 576.716C340.971 576.832 341.838 576.488 342.484 575.749C342.93 575.239 343.509 574.956 344.117 574.956H345.472C346.547 574.956 347.577 574.462 348.372 573.565L350.109 571.603C351.047 570.544 352.263 569.959 353.533 569.959C354.141 569.959 354.738 570.093 355.306 570.357L357.32 571.286C357.421 571.333 357.472 571.472 357.435 571.597C357.397 571.723 357.283 571.788 357.185 571.74L355.171 570.81C354.646 570.567 354.094 570.444 353.533 570.444C352.36 570.444 351.237 570.983 350.371 571.962L348.634 573.924C347.766 574.901 346.644 575.44 345.472 575.44H344.117C343.608 575.44 343.122 575.676 342.749 576.104C342.02 576.94 341.041 577.34 340.051 577.196L336.329 576.666L332.175 575.434C330.138 574.826 329.903 575.235 329.902 575.239L329.905 575.31L329.884 575.315L328.793 577.773L337.473 581.835L346.714 581.486C346.806 581.489 346.911 581.587 346.914 581.721C346.918 581.855 346.833 581.966 346.725 581.971L337.409 582.322Z" fill="#F5D5CC"/>
<path d="M332.048 584.262L331.916 584.197L322.293 573.068L323.838 571.335C323.917 571.246 324.04 571.251 324.113 571.352C324.185 571.451 324.178 571.604 324.098 571.693L322.869 573.072L332.18 583.843C332.259 583.934 332.264 584.087 332.191 584.184L332.048 584.262Z" fill="#BF641D"/>
<path d="M329.204 578.481C328.274 578.013 327.653 577.222 327.819 576.714C327.983 576.205 328.872 576.172 329.802 576.639C330.733 577.107 331.353 577.898 331.188 578.406C331.023 578.915 330.135 578.948 329.204 578.481Z" fill="#FDE0C4"/>
<path d="M322.702 573.053C321.985 572.18 321.653 571.155 321.962 570.763C322.27 570.371 323.101 570.761 323.819 571.633C324.536 572.506 324.868 573.53 324.559 573.923C324.251 574.314 323.42 573.925 322.702 573.053Z" fill="#FDE0C4"/>
<path d="M317.918 570.491C317.202 569.618 316.869 568.593 317.178 568.201C317.486 567.809 318.318 568.199 319.035 569.071C319.753 569.944 320.084 570.968 319.776 571.361C319.468 571.752 318.637 571.363 317.918 570.491Z" fill="#FDE0C4"/>
<path d="M332.507 558.703C333.016 557.628 333.737 556.982 334.117 557.261C334.497 557.54 334.392 558.637 333.882 559.711C333.372 560.786 332.651 561.431 332.271 561.153C331.891 560.875 331.997 559.778 332.507 558.703Z" fill="#E4B995"/>
<path d="M418.578 487.436C418.471 487.436 418.383 487.327 418.383 487.194V471.35C418.383 471.217 418.471 471.108 418.578 471.108C418.686 471.108 418.773 471.217 418.773 471.35V487.194C418.773 487.327 418.686 487.436 418.578 487.436Z" fill="#BF641D"/>
<path d="M492.26 487.174C491.988 487.174 491.73 487.069 491.484 486.915C491.488 486.749 491.489 486.583 491.494 486.418L491.397 486.862C490.413 486.168 489.701 484.346 489.701 482.201V429.886L492.002 431.263L494.787 432.814L494.819 432.834V482.201C494.819 484.937 493.667 487.174 492.26 487.174Z" fill="#F1C596"/>
<path d="M575.432 554.327C574.192 555.536 573.532 557.066 573.96 557.743C574.386 558.422 575.739 557.991 576.979 556.782C578.22 555.573 578.879 554.045 578.451 553.366C578.024 552.689 576.673 553.119 575.432 554.327Z" fill="#B1825C"/>
<path d="M490.437 472.747V430.844L494.85 432.415C503.387 435.528 509.192 445.339 509.023 456.373L508.111 516.007C507.967 525.4 511.643 534.251 517.891 539.561L524.68 545.331C526.322 546.726 527.795 548.406 529.053 550.322C530.68 552.798 532.662 554.879 534.897 556.46L552.714 569.056L561.868 564.896C564.16 563.854 566.301 562.36 568.21 560.47L574.432 554.312C575.205 553.547 576.32 553.638 577.006 554.523C577.714 555.437 577.719 556.882 577.015 557.802L570.73 566.029C569.846 567.187 569.34 568.712 569.309 570.308L569.258 572.987L571.635 576.428L577.417 574.708L578.273 575.199L579.472 573.815L581.224 571.794C581.991 570.909 583.146 570.793 584.018 571.513L585.339 570.085C586.737 568.573 588.862 568.774 590.061 570.53L581.875 580.299C580.368 582.097 578.454 583.276 576.39 583.676L574.477 585.127C572.789 586.407 570.85 587.085 568.873 587.085H565.989L544.987 579.252L525.35 569.754C517.148 565.785 509.415 560.454 502.362 553.907L498.322 550.156C496.114 548.106 494.69 545.01 494.387 541.605L493.739 534.33L492.333 526.83C489.763 513.127 488.879 499.018 489.711 484.984L490.437 472.747Z" fill="#F5D5CC"/>
<path d="M569.311 570.233C569.35 568.876 569.733 567.574 570.398 566.509C569.733 567.575 569.35 568.877 569.311 570.233ZM577.015 557.802C577.366 557.344 577.54 556.756 577.54 556.168V556.167C577.541 556.756 577.366 557.344 577.015 557.802Z" fill="#67776C"/>
<path d="M577.54 556.168C577.54 555.848 577.488 555.529 577.385 555.23C577.488 555.529 577.54 555.848 577.54 556.167V556.168ZM577.006 554.523C576.996 554.511 576.987 554.499 576.977 554.487C576.987 554.499 576.996 554.511 577.006 554.523Z" fill="#714A33"/>
<path d="M567.546 576.982C566.744 576.982 565.965 576.609 565.369 575.927C564.96 575.459 564.425 575.198 563.868 575.198H562.513C561.392 575.198 560.312 574.679 559.482 573.744L557.746 571.783C556.846 570.766 555.671 570.203 554.453 570.203C553.87 570.203 553.293 570.332 552.747 570.584L550.733 571.513C551.316 569.288 552.714 569.056 552.714 569.056L561.868 564.895C564.159 563.854 566.3 562.361 568.208 560.472L574.431 554.313C574.782 553.965 575.204 553.794 575.625 553.794C576.116 553.794 576.606 554.029 576.977 554.487C576.986 554.499 576.996 554.511 577.006 554.523C577.169 554.735 577.296 554.975 577.385 555.23C577.488 555.529 577.54 555.848 577.54 556.168C577.54 556.755 577.365 557.343 577.015 557.802L570.732 566.026C570.614 566.181 570.503 566.342 570.398 566.509C569.732 567.573 569.35 568.875 569.31 570.233C569.31 570.239 569.31 570.246 569.31 570.252C569.31 570.27 569.309 570.289 569.308 570.308L569.257 572.987L571.635 576.427L567.912 576.956C567.79 576.973 567.668 576.982 567.546 576.982Z" fill="#F5D5CC"/>
<path d="M574.839 557.672L574.208 558.109C572.997 558.947 572.579 560.858 573.284 562.341L574.178 564.224L575.169 572.333L573.223 575.955L577.418 574.708L578.273 575.199L579.473 573.815L578.405 564.88L574.839 557.672Z" fill="#F5D5CC"/>
<path d="M579.292 577.726L579.292 577.728L579.292 577.726ZM570.578 582.322L570.54 582.32L561.26 581.971C561.152 581.966 561.068 581.855 561.071 581.721C561.075 581.588 561.162 581.498 561.271 581.486L570.513 581.835L579.193 577.773L578.075 575.253L578.077 575.186C578.083 575.217 577.981 575.099 577.581 575.097C577.25 575.097 576.703 575.168 575.811 575.434L571.681 576.662L567.935 577.196C566.947 577.34 565.966 576.938 565.237 576.105C564.864 575.676 564.378 575.44 563.868 575.44H562.514C561.341 575.44 560.218 574.901 559.352 573.924L557.615 571.962C556.749 570.983 555.626 570.444 554.454 570.444C553.892 570.444 553.34 570.567 552.815 570.81L550.801 571.74C550.704 571.788 550.588 571.723 550.551 571.597C550.514 571.472 550.565 571.333 550.666 571.286L552.68 570.357C553.248 570.093 553.846 569.959 554.454 569.959C555.723 569.959 556.939 570.544 557.878 571.603L559.614 573.565C560.408 574.462 561.438 574.956 562.514 574.956H563.868C564.476 574.956 565.056 575.239 565.502 575.75C566.147 576.488 567.015 576.832 567.891 576.716L571.613 576.187L575.719 574.963C577.117 574.55 577.994 574.512 578.324 574.857C578.405 574.939 578.444 575.036 578.459 575.121L579.585 577.655C579.627 577.75 579.633 577.862 579.604 577.962C579.573 578.063 579.51 578.142 579.428 578.179L570.578 582.322Z" fill="#F5D5CC"/>
<path d="M575.938 584.262L575.796 584.184C575.722 584.087 575.727 583.934 575.806 583.843L585.118 573.072L583.888 571.693C583.808 571.604 583.802 571.451 583.874 571.352C583.945 571.251 584.068 571.246 584.149 571.335L585.693 573.068L576.07 584.197L575.938 584.262Z" fill="#F5D5CC"/>
<path d="M578.783 578.481C579.714 578.013 580.334 577.222 580.169 576.714C580.004 576.205 579.115 576.172 578.185 576.639C577.255 577.107 576.634 577.898 576.8 578.406C576.965 578.915 577.852 578.948 578.783 578.481Z" fill="#FDE0C4"/>
<path d="M585.284 573.053C586.002 572.18 586.334 571.155 586.025 570.763C585.717 570.371 584.885 570.761 584.168 571.633C583.45 572.506 583.118 573.53 583.427 573.923C583.736 574.314 584.567 573.925 585.284 573.053Z" fill="#FDE0C4"/>
<path d="M590.068 570.491C590.785 569.618 591.117 568.593 590.809 568.201C590.5 567.809 589.669 568.199 588.951 569.071C588.234 569.944 587.902 570.968 588.211 571.361C588.519 571.752 589.351 571.363 590.068 570.491Z" fill="#FDE0C4"/>
<path d="M575.48 558.703C574.97 557.628 574.25 556.982 573.87 557.261C573.49 557.54 573.595 558.637 574.104 559.711C574.614 560.786 575.336 561.431 575.716 561.153C576.095 560.875 575.99 559.778 575.48 558.703Z" fill="#E4B995"/>
<path d="M489.408 487.436C489.301 487.436 489.214 487.327 489.214 487.194V471.35C489.214 471.217 489.301 471.108 489.408 471.108C489.516 471.108 489.603 471.217 489.603 471.35V487.194C489.603 487.327 489.516 487.436 489.408 487.436Z" fill="#BF641D"/>
<path d="M218.129 733.749L227.881 569.808L230.02 570.004L220.268 733.945L218.129 733.749Z" fill="#4F2B2C"/>
<path d="M236.04 547.139C235.274 560.002 228.95 569.906 228.95 569.906C228.95 569.906 223.866 558.954 224.632 546.089C225.397 533.226 231.721 523.322 231.721 523.322C231.721 523.322 236.805 534.275 236.04 547.139Z" fill="#224249"/>
<path d="M228.416 569.856L230.883 528.379L231.953 528.479L229.486 569.956L228.416 569.856Z" fill="#21181C"/>
<path d="M246.115 577.562C238.873 589.27 227.81 593.797 227.81 593.797C227.81 593.797 228.49 579.34 235.731 567.631C242.973 555.923 254.035 551.397 254.035 551.397C254.035 551.397 253.357 565.854 246.115 577.562Z" fill="#224249"/>
<path d="M228.236 594.202L227.386 593.39L250.736 555.64L251.586 556.452L228.236 594.202Z" fill="#21181C"/>
<path d="M211.183 574.348C216.961 587.254 227.367 593.756 227.367 593.756C227.367 593.756 228.406 579.333 222.628 566.427C216.851 553.52 206.444 547.02 206.444 547.02C206.444 547.02 205.406 561.443 211.183 574.348Z" fill="#224249"/>
<path d="M226.899 594.081L208.27 552.469L209.206 551.82L227.835 593.432L226.899 594.081Z" fill="#21181C"/>
<path d="M245.221 613.379C237.469 625.911 225.628 630.757 225.628 630.757C225.628 630.757 226.355 615.282 234.107 602.75C241.858 590.217 253.699 585.372 253.699 585.372C253.699 585.372 252.972 600.846 245.221 613.379Z" fill="#224249"/>
<path d="M226.053 631.163L225.202 630.35L250.195 589.942L251.046 590.754L226.053 631.163Z" fill="#21181C"/>
<path d="M207.83 609.94C214.014 623.754 225.153 630.713 225.153 630.713C225.153 630.713 226.265 615.274 220.081 601.459C213.896 587.645 202.757 580.687 202.757 580.687C202.757 580.687 201.646 596.125 207.83 609.94Z" fill="#224249"/>
<path d="M224.685 631.037L204.746 586.495L205.682 585.848L225.622 630.388L224.685 631.037Z" fill="#21181C"/>
<path d="M245.388 649.57C236.679 663.65 223.377 669.095 223.377 669.095C223.377 669.095 224.193 651.709 232.902 637.629C241.61 623.549 254.913 618.106 254.913 618.106C254.913 618.106 254.096 635.491 245.388 649.57Z" fill="#224249"/>
<path d="M223.802 669.5L222.951 668.688L251.031 623.291L251.881 624.103L223.802 669.5Z" fill="#21181C"/>
<path d="M203.382 645.707C210.329 661.227 222.844 669.044 222.844 669.044C222.844 669.044 224.093 651.7 217.145 636.179C210.197 620.66 197.683 612.842 197.683 612.842C197.683 612.842 196.433 630.187 203.382 645.707Z" fill="#224249"/>
<path d="M222.376 669.369L199.974 619.328L200.909 618.68L223.312 668.721L222.376 669.369Z" fill="#21181C"/>
<path d="M246.243 686.005C236.288 702.1 221.081 708.322 221.081 708.322C221.081 708.322 222.015 688.45 231.97 672.354C241.925 656.259 257.132 650.037 257.132 650.037C257.132 650.037 256.199 669.91 246.243 686.005Z" fill="#224249"/>
<path d="M221.506 708.729L220.655 707.917L252.754 656.023L253.604 656.835L221.506 708.729Z" fill="#21181C"/>
<path d="M198.226 681.589C206.168 699.33 220.473 708.267 220.473 708.267C220.473 708.267 221.901 688.439 213.958 670.698C206.017 652.957 191.711 644.02 191.711 644.02C191.711 644.02 190.283 663.847 198.226 681.589Z" fill="#224249"/>
<path d="M220.004 708.59L194.396 651.389L195.332 650.74L220.941 707.942L220.004 708.59Z" fill="#21181C"/>
<path d="M219.253 751.012L293.455 632.428L295.003 633.925L220.801 752.509L219.253 751.012Z" fill="#4F2B2C"/>
<path d="M308.896 620.32C303.074 629.624 294.228 633.176 294.228 633.176C294.228 633.176 294.823 621.641 300.645 612.335C306.467 603.031 315.313 599.479 315.313 599.479C315.313 599.479 314.719 611.014 308.896 620.32Z" fill="#224249"/>
<path d="M293.841 632.802L312.615 602.8L313.387 603.549L294.615 633.551L293.841 632.802Z" fill="#21181C"/>
<path d="M304.169 649.812C293.889 654.158 283.629 650.634 283.629 650.634C283.629 650.634 290.034 640.063 300.314 635.717C310.593 631.37 320.853 634.894 320.853 634.894C320.853 634.894 314.447 645.465 304.169 649.812Z" fill="#224249"/>
<path d="M283.787 651.211L283.471 650.057L316.613 636.043L316.929 637.197L283.787 651.211Z" fill="#21181C"/>
<path d="M278.902 625.366C278.04 638.824 283.309 650.323 283.309 650.323C283.309 650.323 289.974 640.005 290.837 626.547C291.698 613.089 286.429 601.588 286.429 601.588C286.429 601.588 279.763 611.908 278.902 625.366Z" fill="#224249"/>
<path d="M282.82 650.276L285.599 606.884L286.575 606.98L283.796 650.372L282.82 650.276Z" fill="#21181C"/>
<path d="M288.897 676.498C277.895 681.151 266.912 677.379 266.912 677.379C266.912 677.379 273.768 666.063 284.771 661.411C295.774 656.758 306.757 660.531 306.757 660.531C306.757 660.531 299.9 671.845 288.897 676.498Z" fill="#224249"/>
<path d="M267.07 677.955L266.754 676.801L302.229 661.801L302.545 662.955L267.07 677.955Z" fill="#21181C"/>
<path d="M261.852 650.331C260.93 664.736 266.57 677.046 266.57 677.046C266.57 677.046 273.705 666.001 274.627 651.595C275.55 637.19 269.91 624.879 269.91 624.879C269.91 624.879 262.774 635.925 261.852 650.331Z" fill="#224249"/>
<path d="M266.081 676.999L269.055 630.553L270.032 630.649L267.058 677.095L266.081 676.999Z" fill="#21181C"/>
<path d="M274.282 704.138C261.922 709.365 249.583 705.128 249.583 705.128C249.583 705.128 257.286 692.416 269.648 687.189C282.008 681.962 294.347 686.201 294.347 686.201C294.347 686.201 286.643 698.912 274.282 704.138Z" fill="#224249"/>
<path d="M249.741 705.705L249.425 704.55L289.28 687.698L289.597 688.852L249.741 705.705Z" fill="#21181C"/>
<path d="M243.898 674.74C242.862 690.925 249.198 704.755 249.198 704.755C249.198 704.755 257.214 692.346 258.25 676.161C259.286 659.978 252.95 646.148 252.95 646.148C252.95 646.148 244.934 658.557 243.898 674.74Z" fill="#224249"/>
<path d="M248.71 704.706L252.051 652.526L253.026 652.623L249.686 704.803L248.71 704.706Z" fill="#21181C"/>
<path d="M225.358 698.792C224.173 717.293 231.416 733.101 231.416 733.101C231.416 733.101 240.579 718.916 241.764 700.416C242.948 681.916 235.706 666.106 235.706 666.106C235.706 666.106 226.542 680.291 225.358 698.792Z" fill="#224249"/>
<path d="M230.928 733.053L234.748 673.404L235.724 673.5L231.905 733.148L230.928 733.053Z" fill="#21181C"/>
<path d="M675.309 725.858L580.806 674.683L581.473 672.777L675.976 723.951L675.309 725.858Z" fill="#4F2B2C"/>
<path d="M569.494 661.377C576.91 665.392 581.14 673.731 581.14 673.731C581.14 673.731 573.349 675.559 565.933 671.544C558.517 667.529 554.287 659.189 554.287 659.189C554.287 659.189 562.079 657.36 569.494 661.377Z" fill="#224249"/>
<path d="M580.973 674.207L557.064 661.26L557.398 660.308L581.308 673.254L580.973 674.207Z" fill="#21181C"/>
<path d="M590.093 659.998C595.156 669.642 594.984 680.93 594.984 680.93C594.984 680.93 586.603 676.583 581.541 666.939C576.479 657.295 576.651 646.007 576.651 646.007C576.651 646.007 585.031 650.354 590.093 659.998Z" fill="#224249"/>
<path d="M595.334 680.645L594.634 681.214L578.311 650.12L579.012 649.551L595.334 680.645Z" fill="#21181C"/>
<path d="M579.191 691.133C588.316 689.172 594.846 681.325 594.846 681.325C594.846 681.325 586.578 676.659 577.452 678.619C568.325 680.579 561.796 688.426 561.796 688.426C561.796 688.426 570.064 693.094 579.191 691.133Z" fill="#224249"/>
<path d="M594.917 681.838L565.491 688.16L565.349 687.136L594.774 680.815L594.917 681.838Z" fill="#21181C"/>
<path d="M611.059 670.047C616.477 680.37 616.293 692.453 616.293 692.453C616.293 692.453 607.323 687.8 601.904 677.478C596.485 667.154 596.67 655.071 596.67 655.071C596.67 655.071 605.64 659.724 611.059 670.047Z" fill="#224249"/>
<path d="M616.642 692.168L615.943 692.738L598.471 659.456L599.171 658.886L616.642 692.168Z" fill="#21181C"/>
<path d="M599.388 703.374C609.157 701.275 616.146 692.876 616.146 692.876C616.146 692.876 607.296 687.879 597.527 689.979C587.757 692.077 580.769 700.476 580.769 700.476C580.769 700.476 589.619 705.472 599.388 703.374Z" fill="#224249"/>
<path d="M616.216 693.388L584.719 700.154L584.577 699.13L616.074 692.364L616.216 693.388Z" fill="#21181C"/>
<path d="M632.519 679.221C638.607 690.818 638.4 704.393 638.4 704.393C638.4 704.393 628.322 699.166 622.235 687.569C616.147 675.971 616.354 662.396 616.354 662.396C616.354 662.396 626.431 667.624 632.519 679.221Z" fill="#224249"/>
<path d="M638.751 704.108L638.05 704.678L618.422 667.285L619.121 666.716L638.751 704.108Z" fill="#21181C"/>
<path d="M619.407 716.662C630.383 714.304 638.234 704.868 638.234 704.868C638.234 704.868 628.292 699.254 617.317 701.612C606.342 703.97 598.491 713.406 598.491 713.406C598.491 713.406 608.432 719.019 619.407 716.662Z" fill="#224249"/>
<path d="M648.719 749.769L606.166 620.754L607.849 619.894L650.402 748.91L648.719 749.769Z" fill="#4F2B2C"/>
<path d="M605.45 599.704C608.789 609.828 607.008 620.324 607.008 620.324C607.008 620.324 599.812 614.407 596.472 604.283C593.134 594.159 594.916 583.664 594.916 583.664C594.916 583.664 602.112 589.582 605.45 599.704Z" fill="#224249"/>
<path d="M606.587 620.538L595.82 587.897L596.663 587.469L607.429 620.11L606.587 620.538Z" fill="#21181C"/>
<path d="M622.367 618.047C620.438 630.345 613.421 638.991 613.421 638.991C613.421 638.991 609.532 627.701 611.46 615.403C613.389 603.105 620.406 594.457 620.406 594.457C620.406 594.457 624.295 605.749 622.367 618.047Z" fill="#224249"/>
<path d="M613.869 639.1L612.976 638.884L619.194 599.232L620.086 599.447L613.869 639.1Z" fill="#21181C"/>
<path d="M594.877 632.066C603.194 639.139 613.073 639.17 613.073 639.17C613.073 639.17 609.467 627.734 601.149 620.661C592.831 613.589 582.953 613.558 582.953 613.558C582.953 613.558 586.56 624.993 594.877 632.066Z" fill="#224249"/>
<path d="M612.816 639.636L585.999 616.833L586.512 615.9L613.33 638.703L612.816 639.636Z" fill="#21181C"/>
<path d="M632.601 645.651C630.538 658.815 623.027 668.07 623.027 668.07C623.027 668.07 618.864 655.984 620.928 642.821C622.992 629.656 630.502 620.4 630.502 620.4C630.502 620.4 634.666 632.487 632.601 645.651Z" fill="#224249"/>
<path d="M623.475 668.179L622.582 667.963L629.237 625.521L630.13 625.736L623.475 668.179Z" fill="#21181C"/>
<path d="M603.178 660.657C612.08 668.228 622.654 668.261 622.654 668.261C622.654 668.261 618.794 656.021 609.891 648.45C600.988 640.879 590.414 640.845 590.414 640.845C590.414 640.845 594.274 653.087 603.178 660.657Z" fill="#224249"/>
<path d="M622.398 668.728L593.693 644.318L594.206 643.386L622.911 667.795L622.398 668.728Z" fill="#21181C"/>
<path d="M643.757 673.039C641.439 687.828 633.001 698.227 633.001 698.227C633.001 698.227 628.324 684.648 630.643 669.859C632.961 655.07 641.399 644.672 641.399 644.672C641.399 644.672 646.077 658.25 643.757 673.039Z" fill="#224249"/>
<path d="M610.699 689.897C620.701 698.403 632.581 698.44 632.581 698.44C632.581 698.44 628.244 684.689 618.242 676.183C608.24 667.678 596.36 667.641 596.36 667.641C596.36 667.641 600.697 681.393 610.699 689.897Z" fill="#224249"/>
<path d="M632.325 698.907L600.075 671.485L600.588 670.551L632.838 697.974L632.325 698.907Z" fill="#21181C"/>
<path d="M617.72 719.56C629.153 729.282 642.733 729.325 642.733 729.325C642.733 729.325 637.775 713.605 626.342 703.881C614.908 694.159 601.328 694.116 601.328 694.116C601.328 694.116 606.286 709.837 617.72 719.56Z" fill="#224249"/>
<path d="M642.476 729.791L605.612 698.443L606.124 697.511L642.989 728.859L642.476 729.791Z" fill="#21181C"/>
<path d="M165.951 752.572H257.36L308.713 714.15L251.33 734.459L288.849 664.75L235.439 722.384L249.564 628.524L213.368 717.992L198.36 626.877L192.622 720.737L144.067 654.322L178.055 733.91L125.339 707.169L165.951 752.572Z" fill="#1DAC92" fill-opacity="0.94"/>
<path d="M177.779 705.299L136.388 673.49L136.079 674.112L176.659 705.299H177.779Z" fill="#454243"/>
<path d="M149.72 625.291L149.233 625.703L192.835 705.299H193.547L149.72 625.291Z" fill="#454243"/>
<path d="M193.912 604.231L193.328 604.314L202.567 705.299H203.159L193.912 604.231Z" fill="#454243"/>
<path d="M210.733 705.299L238.63 601.827L238.072 601.595L210.112 705.299H210.733Z" fill="#454243"/>
<path d="M221.634 705.299L270.649 636.352L270.209 635.867L220.849 705.299H221.634Z" fill="#454243"/>
<path d="M283.513 677.786L283.243 677.135L239.433 705.299H240.715L283.513 677.786Z" fill="#454243"/>
<path d="M587.728 514.86H629.958L653.682 497.11L627.172 506.493L644.505 474.289L619.83 500.914L626.356 457.552L609.634 498.885L602.701 456.792L600.049 500.153L577.618 469.471L593.32 506.239L568.966 493.885L587.728 514.86Z" fill="#1DA68D" fill-opacity="0.63"/>
<path d="M595.636 514.86L576.514 500.165L576.372 500.454L595.119 514.86H595.636Z" fill="#374C46"/>
<path d="M582.674 477.898L582.45 478.089L602.593 514.86H602.922L582.674 477.898Z" fill="#374C46"/>
<path d="M603.09 468.169L602.82 468.207L607.089 514.86H607.363L603.09 468.169Z" fill="#374C46"/>
<path d="M610.861 514.86L623.749 467.058L623.492 466.951L610.575 514.86H610.861Z" fill="#374C46"/>
<path d="M615.897 514.86L638.541 483.008L638.338 482.783L615.534 514.86H615.897Z" fill="#374C46"/>
<path d="M644.484 502.15L644.36 501.849L624.12 514.86H624.713L644.484 502.15Z" fill="#374C46"/>
<path d="M329.864 452.671H349.336L360.276 444.486L348.052 448.812L356.045 433.963L344.667 446.24L347.676 426.246L339.965 445.305L336.768 425.895L335.545 445.889L325.202 431.741L332.443 448.695L321.212 442.999L329.864 452.671Z" fill="#A6CDC4"/>
<path d="M333.51 452.671L324.693 445.895L324.627 446.028L333.272 452.671H333.51Z" fill="#779B97"/>
<path d="M327.534 435.628L327.43 435.715L336.718 452.671H336.87L327.534 435.628Z" fill="#779B97"/>
<path d="M336.948 431.141L336.823 431.159L338.791 452.671H338.918L336.948 431.141Z" fill="#779B97"/>
<path d="M340.531 452.671L346.473 430.629L346.355 430.58L340.398 452.671H340.531Z" fill="#779B97"/>
<path d="M342.853 452.671L353.295 437.984L353.201 437.88L342.686 452.671H342.853Z" fill="#779B97"/>
<path d="M356.034 446.81L355.977 446.672L346.645 452.671H346.918L356.034 446.81Z" fill="#779B97"/>
</svg>
