<svg width="26" height="24" viewBox="0 0 26 24" fill="none" xmlns="http://www.w3.org/2000/svg">
<g id="Group">
<path id="Vector" d="M16.2501 4.5818V11.9998C16.2497 12.6366 16.0299 13.2567 15.6224 13.7705C15.2148 14.2843 14.6408 14.665 13.9833 14.8577C13.3258 15.0503 12.619 15.0448 11.9651 14.842C11.3111 14.6392 10.7441 14.2497 10.346 13.7296C9.94785 13.2096 9.73931 12.5862 9.75051 11.9495C9.76172 11.3128 9.9921 10.6959 10.4083 10.1882C10.8245 9.68036 11.405 9.30797 12.0657 9.1249C12.7264 8.94182 13.433 8.95755 14.0834 9.1698V2.0498C19.5575 2.5508 23.8334 6.8148 23.8334 11.9998C23.8334 17.5228 18.9833 21.9998 13.0001 21.9998C7.01683 21.9998 2.16675 17.5228 2.16675 11.9998C2.16675 6.8148 6.44267 2.5508 11.9167 2.0498V4.0618C9.73135 4.31849 7.73384 5.33367 6.3302 6.90102C4.92656 8.46837 4.22213 10.4703 4.36009 12.4998C4.49804 14.5294 5.46802 16.4343 7.07289 17.8274C8.67775 19.2205 10.7971 19.9973 13.0001 19.9998C15.0122 20.0008 16.962 19.3556 18.5151 18.1747C20.0682 16.9938 21.1277 15.3509 21.512 13.5278C21.8963 11.7046 21.5814 9.81485 20.6214 8.18258C19.6613 6.55031 18.1158 5.27727 16.2501 4.5818Z" fill="white"/>
</g>
</svg>
