<svg width="24" height="24" viewBox="0 0 24 24" fill="none" xmlns="http://www.w3.org/2000/svg">
<path id="Relax" d="M21.2287 13.0462C20.5531 12.6791 19.8025 12.4882 19.0656 12.4882C17.462 12.4882 16.1109 13.3839 15.5377 14.8229C15.0806 15.9682 15.142 17.7082 15.681 18.7727C16.029 19.4628 16.8138 20.197 17.9874 20.197C18.2194 20.197 18.4583 20.1676 18.6971 20.1162C19.3453 19.9694 20.2597 18.9269 20.4781 18.0973C20.6418 17.4732 20.0141 16.4087 19.3658 15.9095C19.318 15.8727 19.2635 15.8727 19.2225 15.8727C19.1406 15.8727 18.7312 15.8874 18.5333 16.1591C18.4651 16.2472 18.39 16.4087 18.4378 16.6436L18.4514 16.7024L18.4924 16.7391C18.9086 17.1722 19.127 17.6935 19.0383 18.0385C18.9769 18.2735 18.7858 18.435 18.4651 18.5231C18.158 18.4644 17.7213 18.1854 17.5712 17.9872C17.2914 17.6127 17.0389 16.695 17.1549 16.1958C17.3597 15.3148 18.1921 14.6981 19.1884 14.6981C19.8776 14.6981 20.4917 15.0138 20.8738 15.5644C21.5016 16.4748 21.952 18.2074 21.5835 19.0664C21.1263 20.1456 19.8503 21.2689 18.6152 21.68C18.3013 21.7828 17.9806 21.8342 17.6735 21.8342C16.4726 21.8342 15.2989 21.034 14.3777 19.5876C13.2655 17.8477 13.2041 16.0196 14.1935 14.2869C14.6097 13.5675 15.1829 12.9214 15.7425 12.2973C16.0086 12.0037 16.2815 11.7027 16.534 11.3943C18.2604 9.28724 18.6766 6.85714 17.7827 4.16274C17.0185 1.8501 15.333 0.433156 12.9106 0.0513883C12.6855 0.0146798 12.4603 0 12.2351 0C10.0993 0 8.05902 1.48302 7.2743 3.59743C6.47593 5.74855 7.09689 8.09789 8.81645 9.44876C9.47152 9.96268 10.3176 10.2417 11.1911 10.2417C12.3306 10.2417 13.3746 9.75711 14.0024 8.94218C15.217 7.35638 15.2102 5.55766 13.9751 4.36831C13.5589 3.96452 12.8356 3.81768 12.2965 3.81768C12.0236 3.81768 11.7847 3.85439 11.6005 3.91312C11.1774 4.05996 10.2562 4.98501 10.2494 5.57969C10.2494 5.80728 10.3654 5.98348 10.5838 6.06424L10.6179 6.07892H10.652C10.7407 6.07892 10.7953 6.02019 10.8977 5.9174C11.1092 5.69715 11.5527 5.24931 12.16 5.24931C12.3852 5.24931 12.624 5.31539 12.856 5.44019C13.0539 5.55032 13.0949 5.81462 13.1017 5.9688C13.1222 6.4974 12.8083 7.26094 12.2556 7.62068C11.9485 7.8189 11.4777 7.94371 11.0273 7.94371C10.768 7.94371 10.5292 7.907 10.3449 7.82625C9.68987 7.56194 9.23951 6.99663 9.0621 6.22576C8.84374 5.26399 9.11669 4.18476 9.76493 3.40654C10.4132 2.63567 11.3139 2.20985 12.3033 2.20985C13.5111 2.20985 14.6711 2.85592 15.4013 3.94249C16.3498 5.34475 16.4931 7.15081 15.7834 8.76598C15.0669 10.4105 13.6408 11.453 11.9758 11.5632C11.8598 11.5705 11.737 11.5705 11.6141 11.5705C10.7271 11.5705 9.80588 11.3723 8.9188 11.1814C8.33197 11.0566 7.72466 10.9244 7.131 10.851C6.88535 10.8217 6.63288 10.807 6.38723 10.807C3.2347 10.807 0.518884 13.2885 0.0616997 16.5702C-0.381838 19.7712 1.61067 22.7739 4.59943 23.4127C4.90649 23.4787 5.2272 23.5154 5.53427 23.5154C7.55407 23.5154 9.30775 22.1646 9.99694 20.0722C10.7134 17.9064 9.88094 15.6525 8.09996 14.9404C7.70419 14.7862 7.23336 14.7054 6.72841 14.7054C6.04604 14.7054 5.3705 14.8522 4.81779 15.1092C4.12177 15.4396 3.50764 16.7097 3.58953 17.6641C3.69188 18.9416 4.26507 19.2573 4.81096 19.5583L4.87237 19.595C5.06344 19.6978 5.41827 19.8226 5.79357 19.8226C6.37358 19.8226 6.7557 19.5363 6.86488 19.015L6.8717 18.993C6.95359 18.156 6.30534 17.8036 5.87545 17.5613C5.73898 17.4879 5.50697 17.3631 5.49333 17.297C5.49333 17.2016 5.67757 17.1355 5.93686 17.1355C6.54417 17.1355 7.36301 17.4659 7.58136 17.9358C7.85431 18.5378 7.92255 19.5436 7.5063 20.219C7.03547 20.9752 6.4077 21.357 5.62298 21.357C5.03614 21.357 4.37425 21.1294 3.71235 20.7109C2.15656 19.7125 1.61749 17.4218 2.50457 15.6011C3.39164 13.7804 4.88602 12.8773 6.79664 13.0021C8.88468 13.1343 10.4268 14.375 11.2661 16.5922C11.4572 17.1062 11.6005 17.6568 11.737 18.1854C11.9144 18.8902 12.1054 19.617 12.4125 20.2778C13.5384 22.6785 15.5241 24 18.0079 24C18.0966 24 18.1921 24 18.2808 23.9927C20.8602 23.8972 22.723 22.4876 23.6579 19.918C24.5996 17.3191 23.5351 14.3016 21.2287 13.0462Z" fill="white"/>
</svg>
