<svg width="18" height="18" viewBox="0 0 18 18" fill="none" xmlns="http://www.w3.org/2000/svg">
<g id="Group">
<path id="Vector (Stroke)" fill-rule="evenodd" clip-rule="evenodd" d="M0.666656 3.1665C0.666656 1.78579 1.78594 0.666504 3.16666 0.666504H14.8333C16.214 0.666504 17.3333 1.78579 17.3333 3.1665V14.8332C17.3333 16.2139 16.214 17.3332 14.8333 17.3332H3.16666C1.78594 17.3332 0.666656 16.2139 0.666656 14.8332V3.1665Z" fill="#5871EB"/>
<path id="Vector (Stroke)_2" fill-rule="evenodd" clip-rule="evenodd" d="M13.0952 5.91064C13.4206 6.23608 13.4206 6.76372 13.0952 7.08916L7.92259 12.5058C7.59715 12.8313 7.06951 12.8313 6.74408 12.5058L4.24408 10.0058C3.91864 9.68039 3.91864 9.15275 4.24408 8.82731C4.56951 8.50188 5.09715 8.50188 5.42259 8.82731L7.33333 10.7381L11.9167 5.91064C12.2421 5.58521 12.7697 5.58521 13.0952 5.91064Z" fill="white"/>
</g>
</svg>
