<svg width="19" height="22" viewBox="0 0 19 22" fill="none" xmlns="http://www.w3.org/2000/svg">
<path id="Vector" d="M12.0037 6.875C12.5971 6.875 13.1771 6.69905 13.6705 6.36941C14.1638 6.03977 14.5483 5.57123 14.7754 5.02305C15.0024 4.47487 15.0619 3.87167 14.9461 3.28973C14.8303 2.70779 14.5446 2.17324 14.1251 1.75368C13.7055 1.33412 13.171 1.0484 12.589 0.932646C12.0071 0.81689 11.4039 0.8763 10.8557 1.10336C10.3075 1.33043 9.83898 1.71494 9.50933 2.20829C9.17969 2.70164 9.00374 3.28166 9.00374 3.875C9.00374 4.67065 9.31981 5.43371 9.88242 5.99632C10.445 6.55893 11.2081 6.875 12.0037 6.875ZM12.0037 2.375C12.3004 2.375 12.5904 2.46297 12.8371 2.6278C13.0838 2.79262 13.276 3.02689 13.3896 3.30098C13.5031 3.57507 13.5328 3.87667 13.4749 4.16764C13.417 4.45861 13.2742 4.72588 13.0644 4.93566C12.8546 5.14544 12.5874 5.2883 12.2964 5.34618C12.0054 5.40406 11.7038 5.37435 11.4297 5.26082C11.1556 5.14729 10.9214 4.95503 10.7565 4.70836C10.5917 4.46168 10.5037 4.17167 10.5037 3.875C10.5037 3.47718 10.6618 3.09565 10.9431 2.81434C11.2244 2.53304 11.6059 2.375 12.0037 2.375ZM18.3141 11.8138C18.2569 11.84 17.6119 12.1213 16.47 12.1213C15.1716 12.1213 13.2309 11.7575 10.7803 10.2463C10.4073 11.3051 9.92304 12.3214 9.33562 13.2781C10.3907 13.6029 11.3832 14.1041 12.2709 14.7603C14.0587 16.1234 15.0037 18.0641 15.0037 20.375C15.0037 20.5739 14.9247 20.7647 14.7841 20.9053C14.6434 21.046 14.4527 21.125 14.2537 21.125C14.0548 21.125 13.8641 21.046 13.7234 20.9053C13.5828 20.7647 13.5037 20.5739 13.5037 20.375C13.5037 16.4656 10.2516 15.0584 8.42812 14.5766C8.37656 14.6422 8.32312 14.7088 8.26968 14.7734C6.42843 17.0047 4.12124 18.1653 1.55437 18.1653C1.262 18.1667 0.96975 18.1532 0.678743 18.125C0.479831 18.1051 0.296967 18.007 0.17038 17.8523C0.0437929 17.6976 -0.0161482 17.4989 0.00374301 17.3C0.0236342 17.1011 0.121728 16.9182 0.276446 16.7916C0.431163 16.6651 0.629831 16.6051 0.828743 16.625C3.25874 16.8669 5.37281 15.9228 7.10999 13.8125C8.28093 12.3931 9.07874 10.6616 9.47718 9.40625C5.82843 7.28281 3.49781 9.09031 3.47249 9.11C3.39609 9.17524 3.30737 9.22446 3.21158 9.25475C3.11579 9.28504 3.01489 9.29577 2.91488 9.28632C2.81486 9.27686 2.71776 9.24741 2.62935 9.19971C2.54093 9.152 2.463 9.08702 2.40018 9.00862C2.33736 8.93023 2.29093 8.84 2.26365 8.74332C2.23637 8.64663 2.22879 8.54545 2.24136 8.44577C2.25394 8.3461 2.28641 8.24997 2.33685 8.16309C2.38729 8.07621 2.45467 8.00034 2.53499 7.94C2.67562 7.8275 6.02437 5.22125 10.9266 8.55594C15.1894 11.4538 17.67 10.46 17.6934 10.4488C17.7833 10.4063 17.8807 10.3822 17.9799 10.3777C18.0792 10.3732 18.1784 10.3885 18.2717 10.4227C18.365 10.4569 18.4506 10.5093 18.5235 10.5768C18.5963 10.6443 18.6551 10.7257 18.6963 10.8161C18.7374 10.9066 18.7602 11.0043 18.7633 11.1036C18.7664 11.2029 18.7498 11.3019 18.7143 11.3947C18.6788 11.4875 18.6252 11.5723 18.5567 11.6443C18.4882 11.7162 18.406 11.7738 18.315 11.8138H18.3141Z" fill="white"/>
</svg>
